<svg xmlns="http://www.w3.org/2000/svg" width="985" height="653" fill="none" viewBox="0 0 985 653">
    <path fill="#D9F8F5" d="M440.1 240.13s-44.58-20.46-47.91-23c-3.33-2.54-4.92-27.53-11.37-27.56-6.45-.03-6.23 15.14-6.23 15.14s-21.67-19.65-26.91-17.71c-5.24 1.94 3.16 14.84 6.85 17.91 0 0-15.54-5.21-19.29-1.65s8.19 14.12 12.88 16.51c0 0-10.37-.5-12.5 4-2.13 4.5 31.44 22.23 38.35 25.9 0 0 31.92 19.39 52.46 31 0 0-8.54 81.21-7.39 110.67l43.78-4.59 31.6-77.71 31.61-58-85.93-10.91z"/>
    <path fill="#B8D3E2" d="M421.38 336.62l32.75 2.62L456.4 311l-32.65-2.62c-.75 8.51-1.61 18.29-2.37 28.24zM427.66 234.38c9.41 13.49 36.92 46 82.93 45l15.41-28.3-85.93-11s-5.3-2.39-12.41-5.7z"/>
    <path fill="#04007B" d="M377.88 254.58c-.663.065-1.325-.136-1.84-.559-.514-.423-.84-1.033-.905-1.696-.065-.663.136-1.325.559-1.84.423-.514 1.033-.84 1.696-.905 8.5-1.7 14.84-6.75 18.85-15 1.878-3.904 3.085-8.096 3.57-12.4.048-.663.357-1.28.86-1.715.502-.435 1.157-.653 1.82-.605.663.048 1.28.357 1.715.86.435.502.653 1.157.605 1.82 0 .27-2.26 27.15-26.43 32-.164.033-.332.047-.5.04z"/>
    <path fill="#D9F7FE" d="M418.85 213.16c-10.41.21-17.92-7.66-18.31-26.87-.35-16.86 5.39-27.34 17.2-27.58"/>
    <path fill="#000275" d="M418.85 213.16l-.37-18.16c-7.05-1.45-13.49-7.41-17.91-12.56 0 1.25-.06 2.53 0 3.85.36 19.21 7.87 27.08 18.28 26.87z" opacity=".15"/>
    <path fill="#04007B" d="M418.44 215.66c-2.818.071-5.61-.543-8.138-1.791-2.527-1.247-4.714-3.09-6.372-5.369-3.71-5-5.69-12.45-5.89-22.15-.39-18.89 6.78-29.88 19.65-30.14h.05c.663-.007 1.302.25 1.775.715.474.464.743 1.097.75 1.76.007.663-.25 1.302-.715 1.775-.464.474-1.097.743-1.76.75-13.27.27-14.94 15.8-14.75 25 .17 8.65 1.82 15.14 4.9 19.28 1.239 1.693 2.881 3.05 4.778 3.948 1.896.897 3.987 1.307 6.082 1.192h.05c.663 0 1.299.263 1.768.732.469.469.732 1.105.732 1.768s-.263 1.299-.732 1.768c-.469.469-1.105.732-1.768.732l-.41.03z"/>
    <path fill="#D9F8F5" d="M564.08 178.92c1.09 53.58-31.3 75.67-73 76.52-41.7.85-74.08-20.58-75.08-73.51-.94-46.47 30.3-75.65 72-76.5 41.7-.85 75.18 29.57 76.08 73.49z"/>
    <path fill="#16369D" d="M552.16 148.29s12.35 38.13-.92 67.18l-11.61 5.65s17.22-43 5-75.58l7.53 2.75z"/>
    <path fill="#000275" d="M443.85 226.84c-12.984-25.229-16.312-54.331-9.36-81.84l-19.08 9.77 4.72 61.13 23.72 10.94z" opacity=".15"/>
    <path fill="#B8D3E2" d="M539.3 224.89c11.948-25.743 14.081-54.964 6-82.17l19.47 9-2.21 61.28-23.26 11.89z"/>
    <path fill="#fff" d="M447.12 181.88c-.85-42.16 25.43-69.85 62-74.63-3.081-.296-6.176-.417-9.27-.36-41.47.85-72.53 29.6-71.59 75.37 1.06 52.13 33.13 73.24 74.6 72.39 3.23-.06 6.4-.27 9.51-.6-36.85-2.38-64.27-24.05-65.25-72.17z" opacity=".5"/>
    <path fill="#000275" d="M498.38 255.06c16.34-1.38 30.92-6.31 42.18-15.45-.33 0-.65 0-1 .07 0 0-17.74 13.65-34.23 13.57 0 0 38.53-15.32 43.52-36.51l-28.57 11.52s-8 17.17-32.14 22c3.614 1.132 7.058 2.747 10.24 4.8z" opacity=".3"/>
    <path fill="#1A43A4" d="M543.74 142.75c-17.033-8.494-35.873-12.727-54.902-12.335-19.029.392-37.679 5.397-54.348 14.585-6.957 27.516-3.629 56.625 9.36 81.86 32.418 9.328 67.051 7.288 98.15-5.78 9.282-25.187 9.909-52.748 1.78-78.33h-.04z"/>
    <path fill="#000275" d="M432.93 151.19s44.9-25.66 83.53-7.88-11.08 88.05-67.75 84.86c0 0 60.29 10.59 93.22-8.64 0 0 16.12-44.07 2.66-74 0 0-23.52-15.34-53.78-14.32-30.26 1.02-54.54 13.72-54.54 13.72l-3.34 6.26z" opacity=".3"/>
    <path fill="#D9F7FE" d="M560.25 151.8c11.81-.24 18 10 18.31 26.87.39 19.21-6.8 27.37-17.2 27.58"/>
    <path fill="#000275" d="M578.56 178.67c-.028-4.394-.633-8.764-1.8-13-2.32 6.6-7.1 16-15.87 17.79l.47 22.82c10.4-.28 17.64-8.4 17.2-27.61z" opacity=".15"/>
    <path fill="#04007B" d="M561.36 208.75c-.663.007-1.302-.25-1.775-.714-.474-.465-.743-1.098-.75-1.761-.007-.663.25-1.301.715-1.775.464-.474 1.097-.743 1.76-.75 12.6-.26 15-13.75 14.75-25-.19-9.24-2.48-24.67-15.76-24.42-.663.013-1.304-.237-1.782-.697-.479-.459-.755-1.09-.768-1.753-.013-.663.237-1.304.697-1.782.459-.479 1.09-.755 1.753-.768h.46c12.59 0 20 10.65 20.4 29.31.52 25.87-12.09 30-19.65 30.14l-.05-.03z"/>
    <path fill="#04007B" d="M488.71 258c-21.35 0-39.33-5.94-52.11-17.24-14.83-13.15-22.6-32.91-23.14-58.76-.47-23 6.7-42.8 20.73-57.15 13.37-13.69 32.46-21.47 53.75-21.9 21.05-.47 40.64 6.91 55.13 20.65 14.71 14 23.06 33.6 23.5 55.29.54 26.07-6.61 46.23-21.24 59.91-12.91 12.08-31.66 18.7-54.23 19.16l-2.39.04zm1-150.06h-1.65c-20 .41-37.83 7.65-50.28 20.39-13.07 13.37-19.74 31.9-19.3 53.56.5 24.41 7.72 43 21.46 55.1 12.29 10.87 29.95 16.4 51.08 16 21.31-.43 38.92-6.59 50.91-17.81 13.55-12.68 20.17-31.57 19.67-56.16-.42-20.34-8.21-38.72-22-51.76-13.13-12.53-30.81-19.35-49.91-19.35l.02.03z"/>
    <path fill="#000275" d="M487 111.48s24.94 4 33.35 24.18L549.82 146s-21.3-41.55-62.82-34.52z" opacity=".3"/>
    <path fill="#04007B" d="M419.55 157.17c-.525.004-1.037-.158-1.465-.462-.428-.304-.749-.735-.918-1.232-.169-.496-.178-1.034-.025-1.536.153-.501.46-.942.878-1.26 20.355-15.574 45.146-24.252 70.77-24.774 25.625-.521 50.748 7.141 71.72 21.874.282.183.525.42.713.699.188.278.318.592.383.922.064.33.061.67-.009.998-.07.329-.206.641-.399.916-.193.275-.44.508-.725.686-.285.178-.604.296-.936.348-.332.052-.671.036-.997-.046-.326-.083-.632-.23-.9-.433-20.1-14.127-44.182-21.474-68.745-20.974-24.563.5-48.326 8.821-67.835 23.754-.431.337-.963.52-1.51.52zM483.94 235.17c-21.135-.064-42.007-4.689-61.19-13.56-.602-.279-1.069-.785-1.298-1.408-.228-.622-.201-1.31.078-1.912.278-.602.785-1.069 1.407-1.298.623-.229 1.311-.201 1.913.078 21.24 9.958 44.66 14.366 68.068 12.809 23.407-1.556 46.037-9.026 65.772-21.709.56-.358 1.238-.479 1.887-.337.322.071.626.204.896.392.27.188.5.428.677.705.177.277.298.586.356.91.058.324.051.656-.02.977-.07.322-.203.626-.391.896-.189.269-.428.5-.705.677-17.512 11.184-37.218 18.485-57.79 21.41-6.514.911-13.083 1.369-19.66 1.37z"/>
    <path fill="#04007B" d="M443.86 229.34c-.461 0-.912-.127-1.306-.367-.393-.24-.713-.583-.924-.993-13.27-25.773-16.67-55.506-9.56-83.61.073-.325.211-.632.404-.903.194-.271.439-.501.723-.676.284-.175.599-.291.929-.342.329-.052.665-.036.988.044.323.081.627.225.894.425.267.2.491.451.659.739.168.287.277.605.321.936.043.33.02.666-.068.987-6.808 26.928-3.55 55.414 9.16 80.11.194.382.288.806.272 1.234-.016.428-.141.845-.364 1.21-.222.366-.535.669-.907.88-.373.211-.793.323-1.221.326zM542 222.62c-.3-.005-.597-.059-.88-.16-.621-.234-1.124-.704-1.399-1.307-.276-.603-.301-1.291-.071-1.913 9.077-24.328 9.683-51.006 1.72-75.72-.103-.314-.144-.644-.119-.973.025-.329.115-.65.265-.944.149-.294.356-.556.607-.77.251-.214.542-.376.856-.477.314-.101.645-.138.974-.111.329.028.649.12.942.272.293.152.553.36.765.613.212.253.372.545.47.86 8.306 25.785 7.675 53.617-1.79 79-.18.476-.5.887-.917 1.178-.418.291-.914.448-1.423.452z"/>
    <path fill="#04007B" d="M415.94 181.47c-.53 0-1.039-.211-1.414-.586s-.586-.883-.586-1.414c0-.53.211-1.039.586-1.414s.884-.586 1.414-.586l15.15-.29c.263-.005.524.041.768.137.245.096.468.239.658.421.189.182.341.399.446.64.106.24.163.499.168.762.005.263-.041.524-.137.769-.096.244-.239.468-.421.657s-.399.341-.64.447c-.24.105-.499.162-.762.167l-15.15.29h-.08zM416.12 191.86c-.53.01-1.043-.19-1.426-.558-.383-.367-.603-.872-.614-1.402-.011-.531.19-1.043.558-1.426.367-.383.872-.604 1.402-.614l15.88-.64c.53-.021 1.048.169 1.438.529.39.36.621.86.642 1.391.021.53-.169 1.047-.529 1.438-.36.39-.861.621-1.391.642l-15.88.65-.08-.01zM549.38 178.76c-.531 0-1.039-.211-1.414-.586s-.586-.884-.586-1.414c0-.53.211-1.039.586-1.414s.883-.586 1.414-.586l14.61-.3c.53 0 1.039.211 1.414.586s.586.884.586 1.414c0 .53-.211 1.039-.586 1.414s-.884.586-1.414.586l-14.61.3zM549.11 189.72c-.531 0-1.039-.211-1.414-.586s-.586-.884-.586-1.414c0-.531.211-1.039.586-1.414s.883-.586 1.414-.586l14.84-.32c.53-.012 1.044.187 1.427.554.384.367.606.87.618 1.401.012.53-.187 1.044-.554 1.427-.367.384-.871.606-1.401.618l-14.84.32h-.09zM479 120.67c-.53 0-1.039-.211-1.414-.586S477 119.2 477 118.67c0-.531.211-1.039.586-1.414.375-.376.884-.586 1.414-.586l20.08-.14c.53 0 1.039.21 1.414.586.375.375.586.883.586 1.414 0 .53-.211 1.039-.586 1.414s-.884.586-1.414.586l-20.08.14z"/>
    <path fill="#798FCB" d="M471.97 178.34c9.422 0 17.06-7.638 17.06-17.06 0-9.422-7.638-17.06-17.06-17.06-9.422 0-17.06 7.638-17.06 17.06 0 9.422 7.638 17.06 17.06 17.06zM451.48 193.76c3.386 0 6.13-2.744 6.13-6.13 0-3.386-2.744-6.13-6.13-6.13-3.385 0-6.13 2.744-6.13 6.13 0 3.386 2.745 6.13 6.13 6.13zM516.12 203.82c-8.94 8.49-20.87 10-28.72 9.87 5.489 3.509 11.98 5.113 18.472 4.564 6.491-.55 12.621-3.221 17.442-7.603s8.064-10.229 9.229-16.639c1.166-6.409.187-13.024-2.783-18.822-1.34 8.14-4.76 20.22-13.64 28.63z"/>
    <path fill="#04007B" d="M523.93 404.31c-.133.015-.267.015-.4 0-.653-.106-1.238-.466-1.626-1.002-.388-.536-.548-1.204-.444-1.858 10.27-63.95 12.65-95.4 12.67-95.71.048-.663.357-1.28.86-1.715.502-.435 1.157-.653 1.82-.605.663.048 1.28.357 1.715.86.435.502.653 1.157.605 1.82 0 .32-2.42 31.94-12.72 96.14-.102.583-.407 1.11-.861 1.489s-1.027.585-1.619.581zM480.37 405.55c-.659 0-1.292-.26-1.761-.725-.468-.465-.733-1.095-.739-1.755-.09-12.63.12-28.51.26-36.85.024-.901-.293-1.778-.888-2.455-.595-.678-1.423-1.106-2.319-1.2-.897-.093-1.796.155-2.517.696-.722.54-1.213 1.332-1.376 2.219-1.88 9.53-5.27 26.93-6.86 36.36-.056.321-.176.628-.352.902-.175.275-.404.512-.671.698-.268.186-.57.317-.889.386-.318.068-.647.073-.968.014-.653-.11-1.237-.475-1.621-1.015-.385-.54-.539-1.211-.429-1.865 1.6-9.48 5-26.93 6.88-36.49.434-2.085 1.626-3.934 3.347-5.19 1.72-1.255 3.845-1.827 5.963-1.604 2.118.223 4.077 1.225 5.498 2.811 1.421 1.586 2.202 3.644 2.192 5.773-.14 8.32-.35 24.16-.26 36.74.003.328-.059.653-.183.957-.123.304-.305.58-.535.813-.231.233-.505.419-.807.546-.303.127-.627.193-.955.194l-.01.04z"/>
    <path fill="#04007B" d="M454.05 425.46h-.22l-35.61-3.12c-3.94-.34-11-4.49-13.37-11.08-1.37-3.77-1.67-9.61 4.71-16 13-13 39.23-4.88 40.34-4.53.313.099.604.258.855.469.252.211.46.469.612.76.151.291.244.609.273.936.029.327-.007.657-.105.97-.099.313-.258.604-.469.856-.211.252-.469.459-.76.611-.291.152-.609.245-.936.274-.327.029-.657-.007-.97-.106-.25-.08-24.49-7.54-35.3 3.29-3.63 3.65-4.83 7.27-3.55 10.76 1.64 4.5 6.83 7.62 9.1 7.82l34.69 3c1.72-1.43 6.64-6.64 5.87-18.81-.021-.328.023-.657.129-.969.106-.311.273-.598.49-.845.439-.499 1.058-.803 1.721-.846.663-.042 1.316.18 1.814.619.247.218.449.481.594.777.145.295.231.616.252.944 1.11 17.65-8.45 23.6-8.86 23.85-.392.238-.842.366-1.3.37zM521.43 431.35h-.66l-35.62-3.12c-.473-.043-.924-.22-1.3-.51-.41-.31-10.1-7.93-5.91-25.22.071-.325.206-.633.397-.905.192-.272.436-.504.718-.68.282-.177.596-.296.925-.349.328-.054.664-.041.988.036.323.078.628.22.896.417.268.198.494.446.665.732.17.286.282.603.329.932.046.33.027.665-.058.987-2.91 12 2 18.07 3.61 19.65l34.79 3c2.28.2 7.93-2 10.33-6.12 1.86-3.22 1.31-7-1.63-11.22-8.78-12.57-33.93-9.42-34.18-9.38-.663.088-1.334-.092-1.865-.499-.53-.407-.878-1.008-.965-1.671-.088-.663.092-1.334.499-1.864.407-.531 1.008-.878 1.671-.966 1.16-.15 28.44-3.56 38.94 11.48 5.17 7.41 3.87 13.11 1.86 16.58-1.55 2.483-3.665 4.565-6.173 6.075-2.508 1.511-5.337 2.407-8.257 2.615zM450.45 377.7c-2.6 0-5.21-.13-7.81-.38-7.711-.738-15.277-2.574-22.47-5.45-.465-.215-.829-.599-1.019-1.075-.189-.476-.189-1.006.001-1.481.189-.476.554-.861 1.019-1.075.465-.215.994-.243 1.479-.079 14.167 5.655 29.686 7.015 44.62 3.91.263-.071.538-.087.808-.048.27.039.529.133.761.276.232.143.433.331.589.555.157.223.266.476.321.743.056.266.056.542.001.809s-.164.52-.321.743c-.156.223-.356.412-.588.555-.232.144-.491.238-.761.277-5.47 1.14-11.042 1.716-16.63 1.72zM511.87 382.66c-10.905 0-21.729-1.873-32-5.54-.247-.088-.475-.224-.67-.4-.195-.176-.354-.389-.467-.626-.112-.237-.177-.494-.191-.757-.013-.262.025-.525.113-.772.088-.248.224-.475.4-.67.176-.195.389-.354.626-.467.237-.113.494-.178.757-.191.262-.013.525.025.772.113 14.739 5.247 30.577 6.624 46 4 .512-.065 1.029.07 1.444.377.415.307.695.763.781 1.272.087.508-.027 1.031-.317 1.458-.29.427-.733.725-1.238.833-5.289.904-10.644 1.362-16.01 1.37zM501.94 333.85h-.76l-46-4c-2.245-.196-4.32-1.275-5.769-3-1.45-1.725-2.155-3.955-1.961-6.2l2-22.8c.097-1.113.412-2.195.927-3.186.516-.99 1.221-1.869 2.077-2.587.855-.718 1.843-1.26 2.908-1.596 1.065-.336 2.186-.459 3.298-.361l46 4c2.246.198 4.321 1.279 5.77 3.006 1.449 1.727 2.154 3.958 1.96 6.204l-2 22.8c-.185 2.115-1.155 4.084-2.718 5.52-1.564 1.437-3.609 2.235-5.732 2.24v-.04zm-.32-5c.922.08 1.839-.208 2.55-.8.354-.295.647-.657.859-1.065.213-.409.343-.856.381-1.315l2-22.8c.078-.924-.213-1.841-.809-2.551-.595-.71-1.448-1.155-2.371-1.239l-46-4c-.924-.081-1.842.209-2.553.805-.711.597-1.156 1.451-1.237 2.375l-2 22.8c-.08.927.211 1.848.81 2.56.295.351.656.64 1.062.851.407.211.851.34 1.308.379l46 4z"/>
    <path fill="#04007B" d="M451.3 308.12h-.22l-26.77-2.34c-.328-.028-.648-.121-.94-.272-.293-.152-.553-.36-.765-.612-.212-.252-.373-.544-.472-.858-.1-.314-.136-.644-.108-.973.028-.328.121-.648.272-.94.152-.293.36-.552.612-.765.252-.212.544-.372.858-.472.314-.099.645-.136.973-.108l26.78 2.34c.663.029 1.287.321 1.735.81.449.49.684 1.137.655 1.8-.029.663-.321 1.288-.81 1.736-.49.448-1.137.683-1.8.654zM450.35 319h-.22l-26.77-2.35c-.663-.057-1.276-.375-1.705-.884-.428-.51-.637-1.168-.58-1.831.057-.663.375-1.276.884-1.705.51-.428 1.168-.637 1.831-.58l26.78 2.35c.663.029 1.287.32 1.736.81.448.489.683 1.137.654 1.8-.029.663-.32 1.287-.81 1.735-.489.449-1.137.684-1.8.655zM536 315.54h-.22L509 313.19c-.328-.029-.648-.122-.94-.275-.292-.152-.552-.36-.763-.613-.212-.253-.372-.544-.471-.859-.099-.314-.135-.645-.106-.973.029-.328.122-.648.275-.94.152-.292.36-.552.613-.764.252-.211.544-.371.859-.47.314-.099.645-.135.973-.106l26.77 2.34c.663.029 1.287.32 1.736.81.448.489.683 1.137.654 1.8-.029.663-.32 1.287-.81 1.735-.489.449-1.137.684-1.8.655l.01.01zM535.05 326.41h-.22l-26.77-2.35c-.663-.057-1.276-.375-1.705-.884-.428-.509-.637-1.168-.58-1.831.057-.663.375-1.276.884-1.705.509-.428 1.168-.637 1.831-.58l26.78 2.35c.663.029 1.287.321 1.735.81.449.489.684 1.137.655 1.8-.029.663-.321 1.287-.81 1.736-.49.448-1.137.683-1.8.654zM470.65 330.63h-.17c-.262-.023-.517-.097-.751-.218-.233-.122-.44-.288-.609-.49-.169-.201-.297-.434-.376-.685-.079-.251-.107-.515-.084-.777l1.34-15.79-4.93-1.59c-.432-.139-.804-.421-1.054-.798-.251-.378-.366-.83-.326-1.282l1.4-15.88c.048-.526.302-1.011.707-1.35.405-.339.927-.505 1.453-.46.527.046 1.015.299 1.356.704.342.405.508.928.464 1.456l-1.25 14.29 4.93 1.59c.432.139.803.42 1.054.798.251.378.366.83.326 1.282l-1.53 17.37c-.042.492-.264.951-.624 1.289-.36.338-.833.53-1.326.541z"/>
    <path fill="#FF0360" d="M491.03 318.03c2.822 0 5.11-2.288 5.11-5.11 0-2.822-2.288-5.11-5.11-5.11-2.822 0-5.11 2.288-5.11 5.11 0 2.822 2.288 5.11 5.11 5.11z"/>
    <path fill="#04007B" d="M491 320h-.63c-1.401-.122-2.735-.657-3.832-1.537-1.097-.88-1.908-2.066-2.331-3.408-.423-1.341-.439-2.778-.046-4.128.394-1.35 1.179-2.553 2.257-3.457 1.077-.904 2.399-1.468 3.797-1.621 1.398-.153 2.81.112 4.057.762 1.248.65 2.274 1.655 2.95 2.888.676 1.234.971 2.64.848 4.041-.164 1.763-.979 3.402-2.287 4.596-1.307 1.195-3.012 1.859-4.783 1.864zm0-10.22c-.73-.001-1.438.254-2 .72-.629.536-1.024 1.297-1.1 2.12-.035.407.01.817.133 1.207.123.389.321.751.584 1.064.263.313.585.571.947.759.363.189.759.304 1.166.34.407.035.817-.01 1.207-.133.39-.123.751-.321 1.064-.584.313-.263.571-.585.76-.947.188-.363.304-.759.339-1.166.037-.408-.007-.818-.129-1.209-.123-.39-.321-.752-.584-1.065-.263-.314-.586-.572-.949-.76-.363-.188-.76-.302-1.168-.336l-.27-.01z"/>
    <path fill="#FF0002" d="M433.23 237.44l-6.32 12.05c-.146.281-.35.528-.598.725-.248.196-.535.338-.841.417-.307.078-.627.091-.939.037-.312-.054-.609-.173-.872-.349l-7.69-5.1c-.458-.305-.79-.767-.931-1.299-.142-.533-.085-1.098.161-1.591l5.27-10.56"/>
    <path fill="#04007B" d="M424.91 253.2c-.935.002-1.85-.273-2.63-.79l-7.69-5.1c-.967-.645-1.666-1.62-1.966-2.742-.3-1.123-.18-2.317.336-3.358l5.28-10.56c.145-.296.348-.56.596-.778.249-.217.537-.383.85-.488.313-.106.643-.148.972-.125.329.023.651.111.946.259.295.148.557.352.773.602.215.25.379.54.482.854.103.313.143.644.117.973-.026.329-.116.649-.266.943l-5.18 10.37 7.29 4.84 6.18-11.82c.308-.587.836-1.028 1.469-1.226.633-.198 1.319-.136 1.906.171.587.308 1.029.836 1.226 1.469.198.633.137 1.319-.171 1.906l-6.31 12.05c-.306.586-.731 1.102-1.248 1.516-.516.413-1.113.714-1.752.884-.395.102-.802.153-1.21.15z"/>
    <path fill="#04007B" d="M419 393.9c-.645-.002-1.265-.252-1.731-.699-.465-.447-.741-1.056-.769-1.701-1.07-27.35 6-97.47 7.23-109.4-19.92-11.33-49.46-29.25-51-30.21l-.24-.12c-39-20.69-40.78-25.53-39.14-29 1.35-2.86 4.55-4.24 7.67-4.9-4.06-3.42-8.38-8.11-8.94-11.93-.14-.8-.084-1.623.166-2.397.249-.773.683-1.475 1.264-2.043 2.78-2.64 8.94-2.11 14.18-1-2.52-3.9-4.65-8.6-4.1-11.85.125-.886.489-1.722 1.053-2.418.564-.696 1.306-1.225 2.147-1.532 5-1.87 16.94 7.23 25.59 14.71.43-3.55 1.45-8 3.84-10.38.588-.627 1.297-1.127 2.084-1.471.788-.344 1.637-.524 2.496-.529 5.88 0 8 9.2 10.26 18.91.81 3.47 1.91 8.21 2.69 9.22 2.72 1.94 30.4 14.9 47.37 22.69.603.277 1.072.783 1.303 1.405.23.623.204 1.312-.073 1.915-.277.604-.783 1.072-1.405 1.303-.623.23-1.311.204-1.915-.073-7.49-3.44-45-20.72-48.4-23.33-1.93-1.48-2.85-5.14-4.44-12-.92-4-3.38-14.58-5.42-15-.191.004-.379.049-.552.132-.172.083-.325.201-.448.348-2 2-2.75 8.27-2.7 12.12.008.488-.127.967-.389 1.378-.261.412-.636.738-1.081.939-.444.201-.937.267-1.419.192-.481-.076-.93-.291-1.291-.619-10.59-9.58-21.69-17.35-24.37-17.15-.79 1.92 4.09 10.72 7.59 13.64.449.373.753.892.859 1.466.107.574.009 1.167-.276 1.677-.285.509-.739.903-1.284 1.112-.545.21-1.146.222-1.699.035-7.3-2.44-15.18-3.5-16.71-2.25-.22 2.22 7.43 10.07 12.23 12.51.493.266.883.69 1.106 1.204.223.514.268 1.087.126 1.629-.142.542-.462 1.021-.908 1.36-.447.338-.994.517-1.554.507-3.34-.15-8.26.5-9.78 2.11 1.1 1.58 6.83 7.15 36.62 22.94l.31.16.12.07c.32.2 32.12 19.5 52.39 31 .424.237.769.594.992 1.027.222.432.312.92.258 1.403-.08.81-8.5 81.37-7.37 110.31.025.663-.214 1.308-.664 1.795-.449.487-1.074.777-1.736.805l-.14-.02z"/>
    <path fill="#FF0002" d="M316.76 447.82s-9.35-2.43-19.65 13.59c-9.75 15.17-10.31 50.92-10.31 50.92s34.2-10.42 46.09-24c12.55-14.32 7.62-22.64 7.62-22.64"/>
    <path fill="#F0A503" d="M320.11 451.7s-6.09-1.58-12.8 8.85c-6.34 9.87-6.71 33.15-6.71 33.15s22.27-6.78 30-15.61c8.17-9.33 5-14.74 5-14.74"/>
    <path fill="#FFFE00" d="M323.64 453.41s-4-1-8.41 5.81c-4.17 6.49-4.41 21.78-4.41 21.78s14.63-4.46 19.71-10.26c5.37-6.12 3.26-9.68 3.26-9.68"/>
    <path fill="#04007B" d="M286.83 514.85c-.541.001-1.068-.174-1.5-.5-.314-.241-.567-.552-.741-.908-.173-.355-.262-.746-.259-1.142 0-1.49.69-36.65 10.71-52.24 11.14-17.35 21.93-14.78 22.38-14.65.63.172 1.167.585 1.497 1.148.33.564.426 1.234.268 1.868-.158.634-.558 1.18-1.114 1.523-.556.343-1.224.454-1.861.311-.24-.06-8-1.39-17 12.5-7.51 11.69-9.35 36.87-9.79 46.12 8.77-3 32.46-11.71 41.62-22.15 5.83-6.66 7.49-11.74 7.86-14.82.302-1.683.118-3.418-.53-5-.167-.281-.276-.593-.322-.917-.045-.323-.026-.653.057-.969.083-.316.227-.613.426-.873.198-.26.446-.478.729-.641.573-.336 1.256-.431 1.899-.264.643.167 1.194.582 1.531 1.154.24.41 5.7 10.06-7.89 25.57-12.22 14.03-45.8 24.34-47.24 24.78-.237.067-.483.101-.73.1z"/>
    <path fill="#FF0002" d="M319.26 435.24l-3.62 3.34c-.651.596-1.162 1.329-1.498 2.145-.335.817-.486 1.697-.442 2.578.044.882.282 1.743.696 2.522.415.779.997 1.457 1.704 1.985l25.16 18.95c.703.534 1.516.906 2.379 1.089.864.184 1.757.175 2.617-.027.86-.202 1.664-.59 2.356-1.139.692-.548 1.255-1.242 1.648-2.033l2.21-4.41"/>
    <path fill="#FF5059" d="M317.33 448.74l-1.23-.93c-.707-.528-1.289-1.206-1.704-1.985-.414-.779-.652-1.64-.696-2.522-.044-.881.107-1.761.442-2.578.336-.816.847-1.549 1.498-2.145l3.62-3.34 5.05 3.8-6.98 9.7z"/>
    <path fill="#CC0019" d="M338.26 449.54l14.21 10.7-2.21 4.41c-.393.791-.955 1.485-1.647 2.033-.693.548-1.497.937-2.357 1.139-.859.201-1.753.211-2.617.027-.863-.183-1.676-.555-2.379-1.089l-10.26-7.7 7.26-9.52z"/>
    <path fill="#04007B" d="M344.87 470.47c-1.844 0-3.638-.6-5.11-1.71l-25.17-18.95c-.996-.752-1.815-1.714-2.398-2.816-.584-1.103-.919-2.321-.981-3.567-.062-1.247.15-2.491.622-3.647.471-1.155 1.191-2.193 2.107-3.04l3.63-3.34c.431-.396.987-.628 1.571-.657.584-.029 1.16.146 1.629.497l33.2 25c.466.353.794.859.928 1.428.133.57.063 1.168-.198 1.692l-2.21 4.41c-.558 1.115-1.354 2.093-2.332 2.866-.978.772-2.114 1.32-3.328 1.604-.643.15-1.3.227-1.96.23zm-25.44-32l-2.1 1.93c-.379.349-.677.777-.872 1.253-.195.477-.283.991-.257 1.505.026.515.165 1.017.406 1.472.242.455.581.851.993 1.16l25.17 18.95c.41.311.884.528 1.388.635.504.107 1.025.102 1.526-.015.502-.118.971-.345 1.375-.664.403-.32.732-.725.961-1.186l1.28-2.51-29.87-22.53z"/>
    <path fill="#D9F8F5" d="M332.87 393.52c24.85-26.11 56.94-49.5 73.42-39.09l.07.16c14.49 13 .68 50.27-17.72 81.27-18.4 31-35.64 23.83-35.64 23.83l-33.46-25.44s-11.54-14.61 13.33-40.73z"/>
    <path fill="#B8D3E2" d="M316.91 424.5c32.25 28 47.1 18.76 70.56-14.66 15.74-22.41 19.4-42.55 20-54.12 12.61 13.95-.94 50-18.84 80.14-18.41 31-35.6 23.83-35.6 23.83l-33.46-25.44s-2.64-3.37-2.66-9.75z"/>
    <path fill="#04007B" d="M357.75 462.92c-1.93.043-3.852-.269-5.67-.92-.196-.083-.381-.19-.55-.32l-33.46-25.44c-.169-.126-.32-.274-.45-.44-.53-.67-12.6-16.63 13.44-44 13.71-14.41 28.05-26.37 40.38-33.67 15.55-9.2 27.72-11.16 36.19-5.81.291.19.543.434.74.72 7.15 6.76 8.46 18.9 3.88 36.1-3.69 13.84-11.31 30.89-21.46 48-13.12 22.08-25.94 25.78-33.04 25.78zm-3.5-5.45c2.09.66 16.3 3.94 32.24-22.89 9.92-16.72 17.36-33.31 20.93-46.73 2.83-10.65 4.66-24.75-2.73-31.4l-.16-.16c-8.42-4.86-21.21.62-30.54 6.14-11.95 7.08-25.91 18.73-39.31 32.82-21.49 22.59-14.44 35.47-13.28 37.24l32.85 24.98z"/>
    <path fill="#04007B" d="M390 436.07c-.388.001-.771-.089-1.118-.263-.348-.173-.65-.426-.882-.737-14.2-18.196-32.859-32.415-54.17-41.28-.613-.255-1.099-.742-1.352-1.355-.253-.614-.252-1.302.002-1.915.255-.613.742-1.099 1.356-1.352.613-.253 1.301-.253 1.914.002 22.123 9.2 41.497 23.952 56.25 42.83.202.259.352.555.44.871.088.317.112.647.072.973-.04.326-.143.641-.305.927-.162.286-.378.537-.637.739-.445.358-.998.555-1.57.56z"/>
    <path fill="#FF0002" d="M432.83 531.3s-9.35-2.44-19.65 13.58c-9.75 15.17-10.31 50.93-10.31 50.93s34.2-10.42 46.09-24c12.55-14.33 7.62-22.65 7.62-22.65"/>
    <path fill="#F0A503" d="M436.18 535.18s-6.09-1.59-12.8 8.84c-6.34 9.88-6.71 33.15-6.71 33.15s22.27-6.78 30-15.61c8.17-9.32 5-14.74 5-14.74"/>
    <path fill="#FFFE00" d="M439.71 536.88s-4-1-8.41 5.81c-4.17 6.49-4.41 21.78-4.41 21.78s14.63-4.45 19.71-10.25c5.37-6.13 3.26-9.69 3.26-9.69"/>
    <path fill="#04007B" d="M402.9 598.33c-.562-.002-1.108-.192-1.55-.54-.306-.236-.556-.539-.729-.885-.173-.347-.266-.728-.271-1.115 0-1.49.69-36.65 10.7-52.24 11.16-17.35 21.94-14.77 22.39-14.65.63.173 1.167.585 1.497 1.149.33.563.426 1.234.268 1.867-.158.634-.558 1.181-1.114 1.523-.556.343-1.224.455-1.861.311-.25-.05-8-1.38-17 12.5-7.51 11.69-9.35 36.87-9.79 46.12 8.77-3 32.46-11.7 41.62-22.15 5.83-6.66 7.49-11.73 7.86-14.82.302-1.683.118-3.417-.53-5-.167-.28-.277-.591-.323-.915-.047-.323-.028-.652.054-.968.081-.317.225-.613.422-.874.198-.26.445-.479.727-.643.576-.335 1.261-.429 1.906-.26.645.169 1.196.586 1.534 1.16.24.4 5.7 10.05-7.89 25.56-12.22 13.94-45.82 24.3-47.25 24.73-.216.077-.441.124-.67.14z"/>
    <path fill="#FF0002" d="M435.33 518.71l-3.62 3.34c-.651.595-1.163 1.327-1.499 2.143-.337.816-.489 1.696-.446 2.578.043.881.28 1.742.694 2.522.414.779.995 1.458 1.701 1.987l25.17 19c.704.534 1.516.905 2.38 1.089.863.184 1.757.174 2.616-.027.86-.202 1.665-.591 2.357-1.139.692-.548 1.254-1.242 1.647-2.033l2.21-4.41"/>
    <path fill="#FF5059" d="M433.4 532.21l-1.24-.93c-.706-.529-1.287-1.208-1.701-1.987-.414-.78-.651-1.641-.694-2.522-.043-.882.109-1.762.446-2.578.336-.816.848-1.548 1.499-2.143l3.62-3.34 5.05 3.8-6.98 9.7z"/>
    <path fill="#CC0019" d="M454.33 533l14.21 10.7-2.21 4.41c-.393.791-.956 1.485-1.648 2.033-.692.548-1.496.937-2.356 1.139-.859.201-1.753.211-2.617.027-.863-.183-1.676-.555-2.379-1.089l-10.22-7.69 7.22-9.53z"/>
    <path fill="#04007B" d="M460.94 553.94c-1.844 0-3.637-.6-5.11-1.71l-25.17-19c-.996-.752-1.814-1.713-2.398-2.816-.584-1.103-.918-2.321-.98-3.567-.062-1.246.15-2.491.621-3.646.472-1.156 1.191-2.194 2.107-3.041l3.63-3.34c.433-.394.989-.624 1.573-.652.584-.027 1.16.15 1.627.502l33.2 25c.467.351.796.854.93 1.423.133.568.062 1.166-.2 1.687l-2.21 4.41c-.556 1.119-1.353 2.101-2.333 2.875-.98.775-2.12 1.323-3.337 1.605-.637.165-1.292.255-1.95.27zm-25.45-32l-2.09 1.93c-.379.35-.677.779-.872 1.256-.195.478-.283.992-.257 1.507.026.516.165 1.019.406 1.474.242.456.581.853.993 1.163l25.16 18.94c.413.309.888.525 1.392.632.504.107 1.026.103 1.528-.012.502-.117.973-.343 1.377-.663.405-.32.734-.725.963-1.187l1.28-2.54-29.88-22.5z"/>
    <path fill="#D9F8F5" d="M448.94 477c24.85-26.12 56.94-49.51 73.42-39.09l.07.15c14.49 13.05.68 50.28-17.72 81.27-18.4 30.99-35.6 23.83-35.6 23.83l-33.46-25.44S424.1 503.11 448.94 477z"/>
    <path fill="#B8D3E2" d="M448.94 477c24.85-26.12 56.94-49.51 73.42-39.09l.07.15c5.94 5.35 7.12 14.76 5.18 26.13-14.664 15.427-32.194 27.849-51.61 36.57-5.384 11.761-14.07 21.704-25 28.62l-15.34-11.66S424.1 503.11 448.94 477z"/>
    <path fill="#04007B" d="M473.82 546.39c-1.93.043-3.852-.269-5.67-.92-.198-.079-.384-.186-.55-.32l-33.46-25.44c-.172-.123-.323-.271-.45-.44-.53-.66-12.6-16.62 13.44-44 13.71-14.41 28.05-26.37 40.38-33.67 15.55-9.2 27.72-11.16 36.19-5.81.29.187.539.432.73.72 7.16 6.76 8.47 18.9 3.89 36.1-3.68 13.85-11.31 30.89-21.46 48-13.12 22.09-25.93 25.78-33.04 25.78zm-3.5-5.45c2.09.66 16.3 3.95 32.24-22.89 9.92-16.71 17.36-33.31 20.93-46.73 2.83-10.65 4.66-24.75-2.73-31.4-.058-.048-.112-.102-.16-.16-8.42-4.86-21.21.62-30.54 6.14-11.95 7.08-25.91 18.73-39.31 32.82-21.47 22.57-14.52 35.35-13.28 37.25l32.85 24.97z"/>
    <path fill="#04007B" d="M506.05 519.54c-.388.001-.771-.089-1.119-.263-.347-.174-.649-.426-.881-.737-14.207-18.189-32.864-32.407-54.17-41.28-.613-.255-1.099-.742-1.352-1.356-.253-.613-.253-1.302.002-1.914.255-.613.742-1.099 1.355-1.352.614-.254 1.302-.253 1.915.002 22.108 9.215 41.464 23.978 56.2 42.86.278.371.448.813.49 1.275.042.463-.046.928-.254 1.343-.208.415-.527.764-.922 1.008-.395.245-.85.374-1.314.374l.05.04z"/>
    <path fill="#D9F8F5" d="M613.78 188.07c-46.07 15.8-187.35 77.62-231.19 252.25-1.102 4.395-.893 9.017.602 13.294 1.494 4.277 4.209 8.024 7.808 10.776l28.76 22c3.601 2.746 7.927 4.377 12.445 4.691 4.517.315 9.028-.701 12.975-2.921C602.19 400.06 624.8 247.52 628 198.92c.117-1.767-.204-3.536-.937-5.149-.732-1.612-1.853-3.019-3.261-4.093-1.408-1.074-3.06-1.783-4.809-2.064-1.748-.281-3.54-.124-5.213.456z"/>
    <path fill="#B8D3E2" d="M622.86 189.06C615.75 235.47 597 278.12 574 315.34c-.295.474-.73.844-1.245 1.058-.515.214-1.084.263-1.628.138-.544-.124-1.035-.415-1.406-.832-.37-.417-.601-.939-.661-1.494-.765-6.891-3.616-13.385-8.17-18.613s-10.596-8.941-17.317-10.644c-6.722-1.703-13.803-1.314-20.297 1.115-6.494 2.43-12.093 6.783-16.047 12.479-3.954 5.695-6.075 12.462-6.081 19.396-.005 6.934 2.106 13.704 6.051 19.406 3.945 5.702 9.536 10.064 16.026 12.503 6.491 2.44 13.571 2.84 20.295 1.148.539-.133 1.106-.095 1.622.108.517.203.957.562 1.261 1.026.304.464.457 1.012.436 1.566-.02.555-.212 1.089-.549 1.53-38.88 50.49-81.55 86.68-101.73 102.53-3.283 2.577-7.314 4.019-11.486 4.109-4.173.09-8.262-1.176-11.654-3.609-15.13-10.84-25.56-16.21-38.13-20.62v.17c-1.306 5.142-1.074 10.555.668 15.566 1.742 5.012 4.918 9.401 9.132 12.624l24.52 18.75c4.243 3.236 9.345 5.15 14.669 5.506 5.324.356 10.635-.864 15.271-3.506C602.41 398.51 624.82 247.28 628 198.92c.132-1.957-.279-3.912-1.185-5.652-.907-1.739-2.275-3.195-3.955-4.208z"/>
    <path fill="#F3FFFE" d="M397.93 429.17c6.408 2.318 12.59 5.217 18.47 8.66 2.08 1.254 4.57 1.636 6.93 1.063 2.36-.573 4.398-2.055 5.67-4.123C450.47 399.83 536.3 264 613.64 195.6c0 0-127.18 61.86-215.71 233.57z"/>
    <path fill="#FF0002" d="M628 198.92c.115-1.764-.207-3.529-.937-5.138-.731-1.61-1.848-3.013-3.253-4.087-1.404-1.074-3.051-1.784-4.796-2.067-1.745-.284-3.532-.132-5.204.442-31.517 11.064-61.391 26.342-88.81 45.42 32.867 13.539 61.189 36.175 81.64 65.25 11.691-32.129 18.88-65.721 21.36-99.82z"/>
    <path fill="#CC0019" d="M627.77 201.77c0 .52-.08 1-.12 1.58 0 .29 0 .58-.08.88 0 .51-.09 1-.13 1.58 0 .29-.06.59-.08.9l-.18 1.83c0 .25 0 .5-.07.75-.08.86-.18 1.74-.27 2.63l-.09.77c-.07.66-.14 1.33-.22 2 0 .37-.09.74-.14 1.12-.07.58-.14 1.18-.21 1.78 0 .41-.11.82-.16 1.24l-.24 1.82c0 .41-.11.82-.17 1.24-.1.76-.21 1.54-.32 2.32-.06.42-.12.84-.19 1.26-.13.87-.26 1.76-.4 2.65-.07.46-.14.92-.22 1.39-.1.63-.2 1.27-.31 1.92-.11.65-.17 1-.26 1.56s-.21 1.25-.32 1.88c-.11.63-.19 1.07-.28 1.61-.09.54-.24 1.33-.37 2-.09.51-.18 1-.28 1.54-.21 1.11-.43 2.25-.66 3.39-.1.52-.21 1-.32 1.58-.14.7-.28 1.4-.43 2.11-.15.71-.25 1.2-.38 1.8-.13.6-.29 1.31-.43 2l-.42 1.88c-.15.66-.3 1.34-.46 2-.16.66-.28 1.25-.43 1.88-.15.63-.36 1.52-.55 2.27-.22.92-.45 1.85-.68 2.78-.23.93-.44 1.76-.67 2.65-.16.64-.34 1.29-.51 1.94-.17.65-.37 1.43-.57 2.15-.2.72-.37 1.35-.56 2-.19.65-.39 1.42-.59 2.13-.2.71-.39 1.37-.59 2.06-.2.69-.43 1.5-.65 2.25l-.59 2c-.38 1.26-.77 2.53-1.17 3.81-.21.68-.44 1.37-.66 2.06l-.78 2.47-.7 2.1c-.25.77-.51 1.54-.77 2.31s-.49 1.43-.74 2.15-.55 1.58-.83 2.37l-.75 2.1c0 .15-.11.29-.16.43-4.244-6.034-8.842-11.811-13.77-17.3 14.11-28.51 25-59.5 30-92.37l.19.13c.303.192.597.399.88.62.108.085.211.175.31.27.242.2.472.414.69.64l.32.34c.2.22.39.45.57.68l.29.42c.16.23.32.47.46.72s.17.31.26.47c.09.16.24.51.35.77.11.26.14.33.2.51s.17.55.25.84c.08.29.09.34.13.52.069.33.116.664.14 1 0 .15.05.31.06.47.035.496.035.994 0 1.49-.05.69-.1 1.41-.15 2.15.01.24 0 .48-.02.71z"/>
    <path fill="#04007B" d="M606.62 301.25c-.394-.007-.781-.108-1.129-.294s-.646-.452-.871-.776c-20.192-28.699-48.163-51.032-80.62-64.37-.614-.252-1.103-.737-1.359-1.35-.256-.612-.258-1.301-.006-1.915.252-.614.738-1.103 1.35-1.359.612-.256 1.301-.258 1.915-.006 33.313 13.714 62.015 36.657 82.73 66.13.262.371.417.807.45 1.26.033.453-.058.907-.264 1.312-.206.405-.518.747-.903.988s-.829.372-1.283.38h-.01z"/>
    <path fill="#04007B" d="M434 493.11c-6.248 0-12.321-2.06-17.28-5.86l-25.84-19.76c-4.43-3.373-7.769-7.976-9.599-13.235-1.83-5.259-2.07-10.941-.691-16.335 19.15-74.79 58-137.24 115.6-185.6 46.48-39.07 93.1-58.51 116.75-66.62 2.062-.706 4.266-.892 6.416-.541 2.151.35 4.182 1.226 5.913 2.549 1.731 1.324 3.109 3.054 4.011 5.038.902 1.984 1.3 4.159 1.16 6.334-1.63 24.95-8.17 75-33.68 130.13-31.55 68.23-81.62 122.13-148.76 160.22-4.27 2.416-9.094 3.684-14 3.68zm180.59-302.68c-23.32 8-69.29 27.17-115.16 65.71-56.74 47.69-95.08 109.26-114 183-1.133 4.456-.924 9.147.601 13.485 1.525 4.337 4.297 8.128 7.969 10.895l25.84 19.76c3.638 2.793 8.018 4.453 12.594 4.773 4.576.32 9.144-.714 13.136-2.973 66.23-37.56 115.6-90.71 146.73-158 25.17-54.37 31.62-103.76 33.23-128.36.086-1.353-.163-2.706-.725-3.939-.561-1.234-1.419-2.31-2.496-3.132-1.077-.823-2.34-1.368-3.678-1.586-1.338-.217-2.709-.102-3.991.337l-.05.03z"/>
    <path fill="#04007B" d="M514.34 440.64c-.424.004-.842-.102-1.213-.307-.372-.205-.684-.502-.907-.863-23.055-36.863-58.7-64.112-100.32-76.69-.635-.192-1.168-.629-1.481-1.214-.313-.585-.381-1.271-.189-1.906s.629-1.168 1.214-1.481c.585-.313 1.271-.381 1.906-.189 42.775 12.932 79.407 40.941 103.1 78.83.175.278.293.587.348.91.055.324.045.655-.028.974-.074.32-.21.622-.4.889-.19.267-.432.494-.71.667-.395.25-.853.381-1.32.38z"/>
    <path fill="#FF0002" d="M528.05 345.7c18.816 0 34.07-15.254 34.07-34.07 0-18.816-15.254-34.07-34.07-34.07-18.816 0-34.07 15.254-34.07 34.07 0 18.816 15.254 34.07 34.07 34.07z"/>
    <path fill="#FF5760" d="M503.9 333.86c-4.198-6.702-5.934-14.655-4.91-22.496 1.024-7.842 4.743-15.083 10.521-20.482 5.778-5.399 13.254-8.621 21.146-9.112 7.893-.491 15.71 1.779 22.113 6.42-3.257-3.451-7.198-6.184-11.572-8.024-4.374-1.84-9.084-2.745-13.828-2.659-4.744.086-9.418 1.163-13.722 3.16-4.305 1.998-8.144 4.872-11.273 8.439-3.128 3.568-5.478 7.749-6.897 12.277-1.418 4.528-1.876 9.302-1.343 14.017.534 4.715 2.046 9.267 4.44 13.364 2.395 4.096 5.618 7.647 9.465 10.426-1.555-1.634-2.942-3.419-4.14-5.33z"/>
    <path fill="#04007B" d="M528.12 348.21c-2.773-.003-5.536-.315-8.24-.93-5.866-1.337-11.311-4.101-15.853-8.047-4.542-3.945-8.04-8.951-10.185-14.572-2.145-5.621-2.869-11.684-2.11-17.653.76-5.968 2.98-11.657 6.464-16.561 3.484-4.905 8.125-8.875 13.51-11.557 5.386-2.682 11.35-3.994 17.364-3.819 6.014.174 11.891 1.829 17.112 4.819 5.221 2.99 9.624 7.222 12.818 12.32 3.461 5.531 5.38 11.886 5.559 18.408.179 6.521-1.389 12.972-4.542 18.684-3.153 5.712-7.775 10.477-13.389 13.801-5.613 3.325-12.014 5.088-18.538 5.107h.03zm-.12-68.14c-6.997.011-13.793 2.346-19.318 6.639-5.526 4.292-9.469 10.299-11.21 17.076-1.741 6.778-1.181 13.941 1.591 20.366 2.773 6.424 7.602 11.745 13.728 15.127 6.125 3.382 13.201 4.633 20.115 3.556 6.914-1.076 13.274-4.419 18.082-9.504 4.807-5.084 7.79-11.621 8.478-18.585.688-6.963-.957-13.958-4.676-19.885-2.847-4.533-6.798-8.268-11.484-10.855-4.687-2.587-9.953-3.941-15.306-3.935z"/>
    <path fill="#00AAF9" d="M528.05 334.05c12.382 0 22.42-10.038 22.42-22.42 0-12.382-10.038-22.42-22.42-22.42-12.382 0-22.42 10.038-22.42 22.42 0 12.382 10.038 22.42 22.42 22.42z"/>
    <path fill="#3EC9F9" d="M532.19 297.7c2.331 2.267 3.834 5.251 4.271 8.473.436 3.222-.221 6.498-1.866 9.303-1.644 2.805-4.181 4.978-7.206 6.171-3.024 1.194-6.362 1.339-9.479.413 1.581 1.538 3.491 2.696 5.585 3.386 2.094.691 4.318.896 6.503.601 2.185-.296 4.275-1.085 6.11-2.307 1.836-1.223 3.369-2.847 4.484-4.749 1.115-1.902 1.783-4.034 1.953-6.232.17-2.199-.162-4.407-.972-6.458-.809-2.052-2.074-3.892-3.7-5.382-1.626-1.49-3.569-2.591-5.683-3.219z"/>
    <path fill="#04007B" d="M528.1 336.56c-1.892 0-3.777-.215-5.62-.64-6.156-1.428-11.532-5.156-15.027-10.42-3.495-5.264-4.845-11.666-3.772-17.893s4.488-11.808 9.543-15.599c5.056-3.79 11.37-5.504 17.648-4.789 6.279.715 12.046 3.804 16.12 8.635 4.073 4.83 6.145 11.036 5.791 17.345-.355 6.309-3.109 12.243-7.698 16.587-4.589 4.343-10.666 6.767-16.985 6.774zm-.1-44.84c-4.413.008-8.698 1.481-12.182 4.188-3.485 2.708-5.971 6.496-7.069 10.77-1.097 4.274-.744 8.791 1.005 12.843 1.749 4.051 4.794 7.407 8.657 9.539 3.863 2.133 8.325 2.922 12.685 2.243 4.36-.679 8.371-2.787 11.403-5.993 3.032-3.206 4.913-7.328 5.348-11.719.434-4.392-.602-8.803-2.947-12.541-1.784-2.871-4.275-5.236-7.233-6.869-2.959-1.634-6.287-2.481-9.667-2.461z"/>
    <path fill="#FF0002" d="M374.47 491.36s-9.36-2.44-19.66 13.58c-9.75 15.17-10.31 50.93-10.31 50.93s34.21-10.42 46.09-24c12.56-14.33 7.63-22.65 7.63-22.65"/>
    <path fill="#F0A503" d="M377.81 495.24s-6.09-1.59-12.79 8.84c-6.35 9.87-6.71 33.15-6.71 33.15s22.26-6.78 30-15.61c8.17-9.32 5-14.74 5-14.74"/>
    <path fill="#FFFE00" d="M381.35 496.94s-4-1-8.41 5.81c-4.17 6.49-4.41 21.78-4.41 21.78s14.63-4.45 19.72-10.26c5.36-6.12 3.26-9.68 3.26-9.68"/>
    <path fill="#04007B" d="M344.53 558.39c-.545-.002-1.075-.181-1.51-.51-.305-.238-.554-.541-.727-.887-.173-.346-.266-.726-.273-1.113 0-1.49.69-36.65 10.71-52.24 11.15-17.35 21.94-14.78 22.39-14.65.643.162 1.196.572 1.536 1.141.34.57.441 1.251.279 1.894-.162.643-.572 1.196-1.142 1.536-.569.34-1.25.441-1.893.279-.24-.05-8-1.38-17 12.5-7.52 11.7-9.36 36.87-9.79 46.12 8.77-3 32.46-11.7 41.61-22.15 5.83-6.66 7.5-11.73 7.87-14.82.31-1.684.122-3.421-.54-5-.167-.281-.276-.593-.322-.916-.045-.324-.026-.654.057-.97.083-.316.227-.613.426-.873.198-.26.446-.478.729-.641.576-.335 1.261-.429 1.906-.26.645.168 1.196.585 1.534 1.16.24.4 5.69 10-7.9 25.56-12.21 13.94-45.81 24.3-47.24 24.73-.23.07-.469.107-.71.11z"/>
    <path fill="#FF0002" d="M377 478.77l-3.63 3.34c-.651.596-1.162 1.329-1.497 2.145-.336.816-.487 1.697-.443 2.578.044.882.282 1.743.697 2.522.415.779.996 1.457 1.703 1.985l25.17 19c.704.534 1.516.906 2.38 1.089.863.184 1.757.174 2.616-.027.86-.202 1.665-.59 2.357-1.139.692-.548 1.254-1.242 1.647-2.033l2.21-4.41"/>
    <path fill="#FF5059" d="M375 492.27l-1.24-.93c-.707-.528-1.289-1.206-1.703-1.985-.415-.779-.653-1.64-.697-2.522-.044-.881.107-1.762.442-2.578.336-.816.847-1.549 1.498-2.145l3.63-3.34 5 3.8-6.93 9.7z"/>
    <path fill="#CC0019" d="M396 493.07l14.21 10.7-2.21 4.41c-.393.791-.956 1.485-1.648 2.033-.692.548-1.496.937-2.356 1.139-.86.201-1.753.21-2.617.027-.863-.184-1.676-.555-2.379-1.089l-10.22-7.69 7.22-9.53z"/>
    <path fill="#04007B" d="M402.58 514c-1.847-.001-3.643-.601-5.12-1.71l-25.16-18.95c-.999-.75-1.82-1.711-2.406-2.814-.586-1.103-.922-2.321-.984-3.569-.062-1.247.151-2.493.625-3.649.473-1.155 1.195-2.193 2.115-3.038l3.63-3.34c.43-.393.984-.624 1.566-.653.582-.029 1.156.145 1.624.493l33.21 25c.466.353.794.859.927 1.428.134.57.064 1.168-.197 1.692l-2.21 4.41c-.56 1.116-1.358 2.096-2.337 2.87-.98.774-2.118 1.324-3.333 1.61-.64.147-1.294.221-1.95.22zm-25.45-32l-2.13 2c-.378.35-.675.778-.87 1.255-.195.477-.283.991-.259 1.506.025.514.162 1.017.402 1.473.24.456.577.854.987 1.166l25.17 18.94c.412.309.887.525 1.391.632.505.107 1.026.103 1.529-.012.502-.117.972-.343 1.377-.663.404-.32.733-.725.963-1.187l1.27-2.54L377.13 482z"/>
    <path fill="#D9F8F5" d="M390.58 437.06c24.84-26.12 56.93-49.51 73.42-39.06l.07.15c14.49 13.05.68 50.28-17.73 81.27-18.41 30.99-35.6 23.83-35.6 23.83l-33.45-25.44s-11.56-14.64 13.29-40.75z"/>
    <path fill="#B8D3E2" d="M374.61 468c32.25 28 47.1 18.76 70.57-14.65 15.74-22.42 19.4-42.56 20-54.13 12.61 13.95-.94 50-18.84 80.14-18.4 31-35.6 23.83-35.6 23.83l-33.45-25.44s-2.65-3.34-2.68-9.75z"/>
    <path fill="#04007B" d="M415.46 506.45c-1.934.044-3.859-.268-5.68-.92-.196-.083-.381-.19-.55-.32l-33.46-25.44c-.166-.126-.314-.274-.44-.44-.53-.66-12.61-16.62 13.44-44 13.71-14.41 28.05-26.37 40.38-33.67 15.54-9.2 27.72-11.16 36.18-5.81.291.186.542.427.74.71 7.15 6.77 8.46 18.91 3.89 36.11-3.69 13.85-11.31 30.89-21.47 48-13.11 22.09-25.93 25.78-33.03 25.78zM412 501c2.09.66 16.31 3.95 32.24-22.89 9.93-16.71 17.36-33.31 20.94-46.73 2.83-10.65 4.66-24.75-2.74-31.4l-.15-.16c-8.42-4.87-21.22.62-30.54 6.14-11.95 7.08-25.91 18.73-39.31 32.82C370.89 461.37 378 474.25 379.1 476l32.9 25z"/>
    <path fill="#04007B" d="M447.69 479.6c-.388.001-.771-.089-1.118-.263-.348-.174-.65-.426-.882-.737-14.208-18.192-32.869-32.41-54.18-41.28-.613-.256-1.098-.745-1.351-1.359-.252-.614-.25-1.304.006-1.916.256-.613.745-1.099 1.359-1.351s1.303-.25 1.916.006c22.1 9.206 41.452 23.954 56.19 42.82.406.523.589 1.186.508 1.843-.08.658-.418 1.257-.938 1.667-.426.353-.957.553-1.51.57z"/>
    <path fill="#D9F8F5" d="M613.28 270.41s-7.28-7.64-1.28-11.35 27.1 5.92 26.72 24.42c-.38 18.5-13.64 32.43-25.72 31.52-12.08-.91-17.35-10.75-12.81-16.57 0 0-9-11.15 0-15.65 0 0-7.42-6.31-1.84-12.2 4.12-4.38 9.43.36 14.93-.17z"/>
    <path fill="#B8D3E2" d="M613 315c11.05.88 23.1-10.76 25.32-26.95-9 5.13-24.07 10.92-41.07 5.33.768 1.798 1.755 3.494 2.94 5.05C595.67 304.2 601 314 613 315z"/>
    <path fill="#04007B" d="M614.22 317.5c-.47 0-.93 0-1.39-.06-7.31-.58-13.34-4.31-15.72-9.73-.676-1.447-1.019-3.028-1.004-4.625.016-1.598.39-3.171 1.094-4.605-1.6-2.4-4.24-7.22-3.26-11.75.367-1.687 1.239-3.222 2.5-4.4-1.506-1.867-2.421-4.141-2.63-6.53-.056-1.294.16-2.586.634-3.791.474-1.206 1.194-2.299 2.116-3.209 3.58-3.77 7.84-2.62 11.27-1.7l.28.08c-.792-1.581-1.138-3.348-1-5.11.149-1.072.544-2.095 1.155-2.989.61-.893 1.42-1.633 2.365-2.161 3.48-2.14 9.71-1.25 15.86 2.27 9.39 5.37 14.87 14.47 14.67 24.33-.22 10.7-4.67 21-11.91 27.53-4.57 4.19-9.88 6.45-15.03 6.45zm-11.59-46.31c-.46-.018-.918.068-1.341.252-.422.183-.798.46-1.099.808-.45.413-.807.918-1.047 1.48-.239.562-.356 1.169-.343 1.78.11 2.31 2.23 4.63 3 5.33.314.267.556.608.704.992.149.384.199.799.146 1.208-.05.407-.199.797-.435 1.133-.235.337-.549.61-.915.797-.614.233-1.162.611-1.597 1.102-.435.491-.745 1.081-.903 1.718-.68 3.12 2.18 7.57 3.34 9 .347.442.536.988.536 1.55s-.189 1.108-.536 1.55c-.612.822-.982 1.798-1.071 2.819-.088 1.021.11 2.046.571 2.961 1.28 2.93 5 6.24 11.53 6.77 4.2.34 8.72-1.48 12.73-5.11 6.23-5.63 10.07-14.58 10.26-23.92.24-11.86-9.24-18.22-12.15-19.89-5.21-3-9.43-3.17-10.76-2.35-.306.14-.574.352-.78.619-.205.266-.343.579-.4.911-.24 1.89 1.9 4.83 3 6 .322.339.543.763.637 1.222.094.458.056.934-.107 1.373-.164.439-.447.823-.819 1.109-.371.285-.815.46-1.281.506-2.375.099-4.748-.24-7-1-1.257-.392-2.556-.634-3.87-.72z"/>
    <path fill="#fff" d="M369.65 333.42l.81-2c.167-.402.487-.722.89-.89l2-.82c.219-.092.406-.247.538-.446.132-.198.202-.431.202-.669 0-.238-.07-.471-.202-.669-.132-.198-.319-.353-.538-.446l-2-.81c-.401-.17-.72-.489-.89-.89l-.81-2c-.095-.218-.251-.405-.45-.535-.199-.131-.432-.201-.67-.201-.238 0-.471.07-.67.201-.199.13-.356.317-.45.535l-.81 2c-.17.401-.489.72-.89.89l-2 .81c-.22.093-.407.248-.538.446-.132.198-.202.431-.202.669 0 .238.07.471.202.669.131.199.318.354.538.446l2 .82c.402.168.722.488.89.89l.81 2c.091.223.246.413.445.547.2.134.434.205.675.205.24 0 .475-.071.674-.205.2-.134.355-.324.446-.547zM164.69 545.41l1.21-2.94c.123-.295.303-.562.529-.787.227-.225.496-.403.791-.523l2.93-1.21c.328-.135.608-.365.806-.659.197-.295.302-.642.302-.996 0-.355-.105-.701-.302-.996-.198-.295-.478-.524-.806-.659l-2.93-1.21c-.598-.248-1.072-.723-1.32-1.32l-1.21-2.93c-.135-.328-.364-.608-.659-.806-.295-.197-.641-.302-.996-.302s-.701.105-.996.302c-.294.198-.524.478-.659.806l-1.2 2.93c-.25.596-.724 1.069-1.32 1.32l-2.94 1.21c-.328.135-.608.364-.805.659-.198.295-.303.641-.303.996 0 .354.105.701.303.996.197.294.477.524.805.659l2.94 1.21c.595.246 1.069.717 1.32 1.31l1.2 2.94c.135.328.365.608.659.805.295.198.641.303.996.303s.701-.105.996-.303c.295-.197.524-.477.659-.805zM227.44 162.06l1.2-2.93c.25-.596.724-1.069 1.32-1.32l2.94-1.21c.328-.135.608-.364.806-.659.197-.295.302-.641.302-.996 0-.354-.105-.701-.302-.996-.198-.294-.478-.524-.806-.659l-2.9-1.21c-.596-.25-1.07-.724-1.32-1.32l-1.2-2.93c-.135-.328-.364-.608-.659-.805-.295-.198-.641-.303-.996-.303s-.701.105-.996.303c-.294.197-.524.477-.659.805l-1.21 2.93c-.248.598-.722 1.073-1.32 1.32l-2.93 1.21c-.328.135-.608.365-.805.659-.198.295-.303.642-.303.996 0 .355.105.701.303.996.197.295.477.524.805.659l2.93 1.21c.598.248 1.072.723 1.32 1.32l1.21 2.93c.141.316.37.585.66.773.291.188.629.289.975.289s.685-.101.975-.289c.29-.188.519-.457.66-.773zM219.21 448.89l1.21-2.93c.248-.598.722-1.073 1.32-1.32l2.93-1.21c.328-.135.608-.365.806-.659.197-.295.302-.642.302-.996 0-.355-.105-.701-.302-.996-.198-.295-.478-.524-.806-.659l-2.93-1.21c-.297-.121-.566-.301-.793-.527-.227-.227-.406-.496-.527-.793l-1.21-2.93c-.135-.328-.364-.608-.659-.806-.295-.197-.641-.302-.996-.302s-.701.105-.996.302c-.294.198-.524.478-.659.806l-1.21 2.93c-.12.297-.298.568-.525.795-.227.226-.497.405-.795.525l-2.93 1.21c-.328.135-.608.364-.805.659-.198.295-.303.641-.303.996 0 .354.105.701.303.996.197.294.477.524.805.659l2.93 1.21c.297.121.566.3.793.527.227.226.406.496.527.793l1.21 2.93c.135.328.365.608.659.805.295.198.641.303.996.303s.701-.105.996-.303c.295-.197.524-.477.659-.805zM404 107.08l1.21-2.93c.121-.297.3-.566.527-.793.227-.226.496-.406.793-.527l2.93-1.21c.328-.135.608-.364.806-.659.197-.295.302-.641.302-.996 0-.354-.105-.701-.302-.996-.198-.294-.478-.524-.806-.659l-2.93-1.21c-.297-.121-.566-.3-.793-.527-.227-.226-.406-.496-.527-.793L404 92.85c-.135-.328-.364-.608-.659-.805-.295-.198-.641-.303-.996-.303-.354 0-.701.105-.996.303-.294.197-.524.477-.659.805l-1.21 2.93c-.248.598-.722 1.073-1.32 1.32l-2.93 1.21c-.328.135-.608.365-.805.66-.198.294-.303.64-.303.995s.105.701.303.996c.197.295.477.524.805.659l2.93 1.21c.598.248 1.072.723 1.32 1.32l1.21 2.93c.135.328.365.608.659.806.295.197.642.302.996.302.355 0 .701-.105.996-.302.295-.198.524-.478.659-.806zM791.67 370.1l.76-1.83c.076-.184.187-.352.328-.492.14-.141.308-.252.492-.328l1.83-.76c.206-.082.382-.225.506-.408.124-.184.19-.4.19-.622 0-.221-.066-.438-.19-.621-.124-.184-.3-.326-.506-.409l-1.83-.76c-.184-.075-.352-.187-.492-.327-.141-.141-.252-.309-.328-.493l-.76-1.83c-.082-.205-.225-.382-.408-.506-.184-.124-.4-.19-.622-.19-.221 0-.438.066-.622.19-.183.124-.325.301-.408.506l-.76 1.83c-.075.184-.187.352-.327.493-.141.14-.309.252-.493.327l-1.83.76c-.205.083-.382.225-.506.409-.124.183-.19.4-.19.621 0 .222.066.438.19.622.124.183.301.326.506.408l1.83.76c.184.076.352.187.493.328.14.14.252.308.327.492l.76 1.83c.083.206.225.382.408.506.184.124.401.19.622.19.222 0 .438-.066.622-.19.183-.124.326-.3.408-.506zM655.89 500.29l1.12-2.71c.231-.551.669-.989 1.22-1.22l2.71-1.12c.305-.123.566-.335.75-.607.184-.273.282-.594.282-.923 0-.329-.098-.65-.282-.923-.184-.272-.445-.484-.75-.607l-2.71-1.12c-.551-.231-.989-.669-1.22-1.22l-1.12-2.72c-.127-.301-.34-.558-.612-.739-.272-.181-.591-.277-.918-.277-.327 0-.646.096-.918.277-.273.181-.485.438-.612.739l-1.12 2.72c-.231.551-.669.989-1.22 1.22l-2.72 1.12c-.301.127-.558.34-.739.612-.181.272-.277.591-.277.918 0 .327.096.646.277.918.181.273.438.485.739.612l2.72 1.12c.551.231.989.669 1.22 1.22l1.12 2.71c.123.305.335.566.607.75.273.184.594.282.923.282.329 0 .65-.098.923-.282.272-.184.484-.445.607-.75zM640 413.07l1.83-4.45c.184-.45.455-.858.799-1.202.343-.343.751-.615 1.201-.798l4.44-1.84c.489-.21.906-.558 1.199-1.003.293-.444.45-.965.45-1.497 0-.532-.157-1.053-.45-1.497-.293-.445-.71-.793-1.199-1.003l-4.44-1.83c-.45-.183-.859-.454-1.202-.798-.344-.343-.615-.752-.798-1.202L640 391.5c-.21-.489-.558-.906-1.003-1.199-.444-.293-.965-.449-1.497-.449-.532 0-1.053.156-1.497.449-.445.293-.793.71-1.003 1.199l-1.83 4.44c-.375.905-1.095 1.624-2 2l-4.45 1.83c-.489.21-.906.558-1.199 1.003-.293.444-.449.965-.449 1.497 0 .532.156 1.053.449 1.497.293.445.71.793 1.199 1.003l4.45 1.84c.905.376 1.624 1.095 2 2l1.83 4.45c.209.49.557.907 1 1.201.444.294.965.451 1.497.452.532.001 1.053-.154 1.498-.446.445-.292.794-.708 1.005-1.197zM95.2 415.97c1.756 0 3.18-1.424 3.18-3.18 0-1.756-1.424-3.18-3.18-3.18-1.756 0-3.18 1.424-3.18 3.18 0 1.756 1.424 3.18 3.18 3.18zM638.71 81.79c1.757 0 3.18-1.424 3.18-3.18 0-1.756-1.423-3.18-3.18-3.18-1.756 0-3.18 1.424-3.18 3.18 0 1.756 1.424 3.18 3.18 3.18zM577.65 619.98c1.756 0 3.18-1.424 3.18-3.18 0-1.756-1.424-3.18-3.18-3.18-1.756 0-3.18 1.424-3.18 3.18 0 1.756 1.424 3.18 3.18 3.18zM793.82 513.89c1.756 0 3.18-1.424 3.18-3.18 0-1.756-1.424-3.18-3.18-3.18-1.756 0-3.18 1.424-3.18 3.18 0 1.756 1.424 3.18 3.18 3.18zM265.39 269.3c1.756 0 3.18-1.424 3.18-3.18 0-1.756-1.424-3.18-3.18-3.18-1.756 0-3.18 1.424-3.18 3.18 0 1.756 1.424 3.18 3.18 3.18zM163.04 94.92c1.756 0 3.18-1.424 3.18-3.18 0-1.756-1.424-3.18-3.18-3.18-1.756 0-3.18 1.424-3.18 3.18 0 1.756 1.424 3.18 3.18 3.18zM747.41 209.43c1.756 0 3.18-1.424 3.18-3.18 0-1.756-1.424-3.18-3.18-3.18-1.756 0-3.18 1.424-3.18 3.18 0 1.756 1.424 3.18 3.18 3.18zM704.76 291.51c2.723 0 4.93-2.207 4.93-4.93s-2.207-4.93-4.93-4.93-4.93 2.207-4.93 4.93 2.207 4.93 4.93 4.93zM751.32 79.34c2.16 0 3.91-1.75 3.91-3.91s-1.75-3.91-3.91-3.91c-2.159 0-3.91 1.75-3.91 3.91s1.751 3.91 3.91 3.91z"/>
</svg>
