<svg xmlns="http://www.w3.org/2000/svg" width="253.414" height="256" viewBox="0 0 253.414 256">
  <g id="bunny-dark" transform="translate(-1)">
    <path id="Path_20" data-name="Path 20" d="M46.443,40.014a33.808,33.808,0,1,1,67.042-6.206v41.68q7.006-.494,14.222-.5,6.926,0,13.671.461V33.808a33.808,33.808,0,1,1,67.042,6.206l-9.149,48.993c31.4,13.709,55.142,37.518,55.142,67.437v18.1c0,24.6-16.277,45.2-39.032,59.109C192.449,247.668,161.427,256,127.707,256s-64.743-8.332-87.675-22.346C17.277,219.749,1,199.149,1,174.545v-18.1c0-29.76,23.5-53.478,54.634-67.214Zm141.1,55.43,10.705-57.328a23.465,23.465,0,1,0-46.531-4.308V86.849q-5.093-.653-10.343-1.03-6.726-.481-13.671-.486-7.222,0-14.222.526-5.247.391-10.343,1.062V33.808a23.465,23.465,0,1,0-46.531,4.308L67.352,95.634c-33.579,12.473-56.009,35.041-56.009,60.81v18.1c0,39.274,52.1,71.111,116.364,71.111s116.364-31.837,116.364-71.111v-18.1C244.071,130.543,221.412,107.877,187.548,95.444Z" fill="#212121" fill-rule="evenodd"/>
    <path id="Path_21" data-name="Path 21" d="M241.727,139.1c0,39.274-52.1,71.111-116.364,71.111S9,178.375,9,139.1V121H241.727Z" transform="translate(2.343 35.444)" fill="#77838f"/>
    <path id="Path_22" data-name="Path 22" d="M54.267,35.772A23.465,23.465,0,1,1,100.8,31.465V84.577a190.9,190.9,0,0,1,48.581-.072V31.465a23.465,23.465,0,1,1,46.531,4.308L185.2,93.1c33.864,12.433,56.523,35.1,56.523,61,0,39.274-52.1,71.111-116.364,71.111S9,193.375,9,154.1c0-25.769,22.429-48.337,56.009-60.81Z" transform="translate(2.343 2.343)" fill="#e5ecf3" fill-rule="evenodd"/>
    <path id="Path_23" data-name="Path 23" d="M79.859,121.394c0,10.711-5.789,19.394-12.929,19.394S54,132.1,54,121.394,59.789,102,66.929,102,79.859,110.683,79.859,121.394Z" transform="translate(15.525 29.879)" fill="#212121"/>
    <path id="Path_24" data-name="Path 24" d="M148.859,121.394c0,10.711-5.788,19.394-12.929,19.394S123,132.1,123,121.394,128.788,102,135.929,102,148.859,110.683,148.859,121.394Z" transform="translate(35.737 29.879)" fill="#212121"/>
  </g>
</svg>
