<svg width="350" height="375" viewBox="0 0 484 518" fill="none" xmlns="http://www.w3.org/2000/svg">
<path d="M233.78 498.49C362.611 498.49 467.05 394.051 467.05 265.22C467.05 136.389 362.611 31.95 233.78 31.95C104.949 31.95 0.51001 136.389 0.51001 265.22C0.51001 394.051 104.949 498.49 233.78 498.49Z" fill="#0098FF"/>
<path d="M151.31 3.48997L153.11 7.48997C153.293 7.89167 153.394 8.32573 153.408 8.76694C153.422 9.20814 153.348 9.64767 153.19 10.06L151.64 14.06C151.458 14.5283 151.417 15.0394 151.522 15.5307C151.627 16.022 151.872 16.472 152.229 16.8256C152.586 17.1792 153.038 17.4209 153.53 17.5212C154.023 17.6214 154.533 17.5758 155 17.39L159 15.78C159.407 15.6092 159.844 15.5212 160.285 15.5212C160.726 15.5212 161.163 15.6092 161.57 15.78L165.65 17.52C166.091 17.7239 166.584 17.7869 167.062 17.7003C167.54 17.6137 167.979 17.3818 168.32 17.0362C168.662 16.6906 168.888 16.2481 168.968 15.7692C169.049 15.2902 168.98 14.7981 168.77 14.36L166.97 10.3C166.787 9.89828 166.686 9.46421 166.672 9.023C166.658 8.5818 166.732 8.14227 166.89 7.72997L168.44 3.72997C168.606 3.26777 168.635 2.76781 168.526 2.28924C168.416 1.81068 168.172 1.37354 167.821 1.02955C167.471 0.685555 167.029 0.449096 166.549 0.348157C166.068 0.247218 165.569 0.28602 165.11 0.45997L161.11 2.05997C160.703 2.23077 160.266 2.31873 159.825 2.31873C159.384 2.31873 158.947 2.23077 158.54 2.05997L154.46 0.309972C154.016 0.091287 153.515 0.0176721 153.027 0.099538C152.539 0.181404 152.089 0.414608 151.74 0.766175C151.392 1.11774 151.163 1.56988 151.086 2.05867C151.009 2.54746 151.087 3.04816 151.31 3.48997V3.48997ZM457.46 438.79L458.14 435.21C458.284 434.484 458.708 433.845 459.32 433.43L462.32 431.43C462.68 431.219 462.966 430.9 463.136 430.519C463.306 430.137 463.352 429.712 463.269 429.303C463.185 428.894 462.975 428.521 462.668 428.237C462.362 427.953 461.974 427.772 461.56 427.72L458 427C457.639 426.933 457.295 426.795 456.988 426.595C456.68 426.394 456.416 426.134 456.21 425.83L454.21 422.83C453.983 422.491 453.66 422.227 453.283 422.073C452.905 421.918 452.49 421.88 452.091 421.963C451.691 422.045 451.326 422.245 451.04 422.537C450.755 422.829 450.564 423.199 450.49 423.6L449.81 427.17C449.667 427.898 449.243 428.541 448.63 428.96L445.63 430.96C445.291 431.186 445.027 431.508 444.872 431.885C444.717 432.262 444.678 432.676 444.759 433.075C444.841 433.475 445.04 433.841 445.33 434.126C445.621 434.412 445.99 434.605 446.39 434.68L449.96 435.36C450.321 435.429 450.666 435.569 450.973 435.771C451.28 435.974 451.544 436.235 451.75 436.54L453.75 439.54C453.977 439.875 454.297 440.136 454.672 440.29C455.047 440.443 455.458 440.482 455.855 440.402C456.252 440.322 456.616 440.126 456.902 439.839C457.187 439.552 457.382 439.187 457.46 438.79V438.79Z" fill="#04007B"/>
<path d="M478.8 348.55C481.523 348.55 483.73 346.343 483.73 343.62C483.73 340.897 481.523 338.69 478.8 338.69C476.077 338.69 473.87 340.897 473.87 343.62C473.87 346.343 476.077 348.55 478.8 348.55Z" fill="#04007B"/>
<path d="M89.68 42.15C92.4027 42.15 94.61 39.9427 94.61 37.22C94.61 34.4972 92.4027 32.29 89.68 32.29C86.9572 32.29 84.75 34.4972 84.75 37.22C84.75 39.9427 86.9572 42.15 89.68 42.15Z" fill="#04007B"/>
<path d="M411.73 48.1C415.74 48.1 418.99 44.8496 418.99 40.84C418.99 36.8304 415.74 33.58 411.73 33.58C407.72 33.58 404.47 36.8304 404.47 40.84C404.47 44.8496 407.72 48.1 411.73 48.1Z" fill="#04007B"/>
<path d="M428.37 103.58C431.093 103.58 433.3 101.373 433.3 98.65C433.3 95.9272 431.093 93.72 428.37 93.72C425.647 93.72 423.44 95.9272 423.44 98.65C423.44 101.373 425.647 103.58 428.37 103.58Z" fill="#04007B"/>
<path d="M8.07 431.29C11.1794 431.29 13.7 428.769 13.7 425.66C13.7 422.551 11.1794 420.03 8.07 420.03C4.96064 420.03 2.44 422.551 2.44 425.66C2.44 428.769 4.96064 431.29 8.07 431.29Z" fill="#04007B"/>
<path d="M350.28 270.39C350.28 270.39 360.84 259.02 388.6 271.82C414.89 283.94 446.49 331.82 446.49 331.82C446.49 331.82 391.2 347.23 363.41 339.12C334.07 330.56 333.56 315.05 333.56 315.05" fill="#FF0002"/>
<path d="M349.1 278.52C349.1 278.52 355.98 271.12 374.05 279.45C391.16 287.34 411.73 318.53 411.73 318.53C411.73 318.53 375.73 328.53 357.66 323.29C338.55 317.71 338.22 307.62 338.22 307.62" fill="#F0A503"/>
<path d="M345.79 283.88C345.79 283.88 350.31 279.02 362.18 284.49C373.42 289.68 386.94 310.17 386.94 310.17C386.94 310.17 363.29 316.76 351.41 313.29C338.85 309.65 338.63 303 338.63 303" fill="#FFFE00"/>
<path d="M350.28 270.39C350.28 270.39 360.84 259.02 388.6 271.82C414.89 283.94 446.49 331.82 446.49 331.82C446.49 331.82 391.2 347.23 363.41 339.12C334.07 330.56 333.56 315.05 333.56 315.05" stroke="#04007B" stroke-width="2.56" stroke-linecap="round" stroke-linejoin="round"/>
<path d="M275.3 213.4C275.3 213.4 291.78 185.19 366.3 203.65C367.022 203.823 367.668 204.224 368.145 204.793C368.621 205.362 368.902 206.07 368.945 206.81C368.989 207.551 368.794 208.287 368.387 208.908C367.981 209.529 367.386 210.003 366.69 210.26C351.12 216.03 323.85 228.52 320.28 246.26" fill="#FF0002"/>
<path opacity="0.4" d="M366.33 203.65C367.052 203.823 367.698 204.224 368.175 204.793C368.651 205.362 368.932 206.07 368.975 206.81C369.019 207.551 368.824 208.287 368.417 208.908C368.011 209.529 367.416 210.003 366.72 210.26C364.79 210.97 362.72 211.79 360.47 212.7C342.2 206.56 305.65 198 278.01 215.38L275.3 213.38C275.3 213.38 291.78 185.19 366.33 203.65V203.65Z" fill="white"/>
<path d="M275.3 213.4C275.3 213.4 291.78 185.19 366.3 203.65C367.022 203.823 367.668 204.224 368.145 204.793C368.621 205.362 368.902 206.07 368.945 206.81C368.989 207.551 368.794 208.287 368.387 208.908C367.981 209.529 367.386 210.003 366.69 210.26C351.12 216.03 323.85 228.52 320.28 246.26" stroke="#04007B" stroke-width="2.56" stroke-linecap="round" stroke-linejoin="round"/>
<path d="M395 439.33C399.68 443.61 406.28 443.02 414.17 434.38C421.11 426.79 422.69 419.69 417.38 414.84" fill="#D9F7FE"/>
<path opacity="0.15" d="M395 439.33L402.46 431.17C406.27 433.33 411.61 433.17 415.71 432.6C415.23 433.19 414.71 433.78 414.17 434.38C406.31 443 399.71 443.61 395 439.33V439.33Z" fill="#000275"/>
<path d="M395 439.33C399.68 443.61 406.28 443.02 414.17 434.38C421.11 426.79 422.69 419.69 417.38 414.84" stroke="#04007B" stroke-width="2.56" stroke-linecap="round" stroke-linejoin="round"/>
<path opacity="0.5" d="M342.27 365.33C320.27 389.43 326.21 412.56 344.98 429.7C363.75 446.84 387.14 450 408.89 426.19C427.99 405.29 425.4 379.37 406.63 362.19C387.86 345.01 360.3 345.58 342.27 365.33Z" fill="white"/>
<path d="M360 356.08C360 356.08 339 368.59 333.44 387.22L336.49 394.48C336.49 394.48 345.88 367.86 364.58 357.86L360 356.08Z" fill="#16369D"/>
<path opacity="0.5" d="M385.3 444L385.6 447.32C385.692 448.288 385.396 449.253 384.777 450.003C384.159 450.753 383.268 451.226 382.3 451.32C368.276 452.522 354.282 448.705 342.81 440.55C331.578 432.621 323.557 420.932 320.2 407.6C320.077 407.097 320.064 406.573 320.159 406.065C320.255 405.556 320.459 405.073 320.756 404.649C321.053 404.225 321.437 403.869 321.883 403.606C322.329 403.342 322.825 403.176 323.34 403.12L327.21 402.66" fill="#E0F7FC"/>
<path d="M384.4 442.47C384.4 442.47 391.29 452.47 391.27 472.36C391.25 492.25 384.52 501 379 501.14C373.48 501.28 366.93 489.54 367.51 474.72C361.991 486.217 354.416 496.608 345.16 505.38C330.06 519.49 325.37 516.52 321.44 513.74C317.51 510.96 316.74 506.62 319.21 499.83C321.68 493.04 324.27 483.89 324.27 483.89L318.08 480.89C318.08 480.89 312.94 489.3 307.39 497.5C301.84 505.7 288.44 503.43 287.86 491.36C287.28 479.29 291.63 445.2 303.91 428.73C303.91 428.73 296.04 411.35 294.91 394.45C293.78 377.55 296.29 373.27 301.77 371.37C309.08 368.84 315.77 378.85 319.12 384.88C322.47 390.91 327.84 404.71 329.69 407.55" fill="#D9F8F5"/>
<path d="M320.57 387.83L314.87 388C314.771 388.002 314.675 388.029 314.588 388.077C314.502 388.125 314.429 388.193 314.375 388.276C314.32 388.358 314.287 388.453 314.278 388.551C314.268 388.649 314.283 388.749 314.32 388.84L317.38 396.36C317.427 396.472 317.506 396.568 317.608 396.636C317.709 396.703 317.828 396.74 317.95 396.74H324.61" fill="#FF0006"/>
<path opacity="0.5" d="M319 384.85C322.38 390.85 327.72 404.68 329.57 407.52L332.84 409.61L324.29 409.69C324.29 409.69 318.1 385.43 309.05 372.64C313.29 375.4 316.84 381 319 384.85V384.85Z" fill="white"/>
<path d="M339.84 510C328.84 518.77 324.84 516.19 321.39 513.77C320.83 513.373 320.314 512.917 319.85 512.41L317.76 506.17C317.895 504.007 318.367 501.877 319.16 499.86C319.32 499.42 319.48 498.97 319.64 498.51C330.66 497.46 336.93 505 339.84 510ZM309.75 493.86L307.34 497.47C301.78 505.68 288.39 503.4 287.81 491.33C287.724 489.12 287.754 486.907 287.9 484.7C298.57 483 306.12 489.64 309.75 493.86V493.86Z" fill="#DBF7F7"/>
<path d="M391.27 472.36L383.85 471.85C383.289 471.813 382.758 471.583 382.347 471.198C381.937 470.813 381.673 470.298 381.6 469.74L380.6 462.05C380.56 461.726 380.585 461.396 380.674 461.082C380.763 460.767 380.913 460.474 381.118 460.218C381.322 459.963 381.575 459.751 381.862 459.595C382.149 459.439 382.465 459.342 382.79 459.31L390.09 458.61" fill="#FF0006"/>
<path d="M368.88 488C377.28 481.38 384.88 483.53 389.88 486.57C387.56 496.46 383 501 379 501.14C375.19 501.26 371 496 368.88 488V488Z" fill="#DBF7F7"/>
<path opacity="0.4" d="M391.27 472.36C391.27 491.22 385.19 500.06 379.8 501.05C382.11 495.969 383.757 490.611 384.7 485.11C388.51 463.85 383.62 450.91 383.62 450.91L382.62 441.53H382.9L384.38 442.53C384.38 442.53 391.29 452.5 391.27 472.36V472.36Z" fill="white"/>
<path d="M301.68 371.34C308.15 369.1 314.09 376.67 317.68 382.62C309.366 382.366 301.216 384.971 294.59 390C294.16 376.74 296.72 373.06 301.68 371.34V371.34Z" fill="#DBF7F7"/>
<path d="M327.21 402.66L328.78 403.79C327.13 393.57 329.93 382.08 338.78 369.62C354.29 347.84 381.58 343.99 402.29 358.73C423 373.47 428.72 398.88 412.29 421.95C403.47 434.34 393.56 440.82 383.38 442.66L385.3 444L385.6 447.32C385.692 448.288 385.396 449.253 384.777 450.003C384.159 450.753 383.268 451.226 382.3 451.32C368.276 452.522 354.282 448.705 342.81 440.55C331.578 432.621 323.557 420.932 320.2 407.6C320.077 407.097 320.064 406.574 320.159 406.065C320.255 405.556 320.459 405.073 320.756 404.649C321.053 404.225 321.437 403.869 321.883 403.606C322.329 403.342 322.825 403.176 323.34 403.12L327.21 402.66Z" fill="#D9F8F5"/>
<path d="M327.21 402.66L328.78 403.79C327.13 393.57 329.93 382.08 338.78 369.62C354.29 347.84 381.58 343.99 402.29 358.73C423 373.47 428.72 398.88 412.29 421.95C403.47 434.34 393.56 440.82 383.38 442.66L385.3 444L385.6 447.32C385.692 448.288 385.396 449.253 384.777 450.003C384.159 450.753 383.268 451.226 382.3 451.32C368.276 452.522 354.282 448.705 342.81 440.55C331.578 432.621 323.557 420.932 320.2 407.6C320.077 407.097 320.064 406.574 320.159 406.065C320.255 405.556 320.459 405.073 320.756 404.649C321.053 404.225 321.437 403.869 321.883 403.606C322.329 403.342 322.825 403.176 323.34 403.12L327.21 402.66Z" fill="#D9F8F5"/>
<path opacity="0.15" d="M378.08 435.55C384.696 432.945 390.882 429.358 396.43 424.91C404.251 418.619 410.66 410.752 415.24 401.82L420.06 414L393.35 440.1L378.08 435.55ZM335.15 396.33C340.012 379.741 350.766 365.498 365.39 356.28L352.87 352.58L329.28 381.58L335.15 396.33Z" fill="#000275"/>
<path opacity="0.5" d="M396.65 411.23C411.54 390.31 407.81 367.35 391.05 352.41C392.702 353.318 394.302 354.32 395.84 355.41C416.42 370.06 422.19 395.18 406.02 417.9C387.61 443.78 364.22 443.4 343.64 428.75C342.04 427.61 340.513 426.423 339.06 425.19C358.42 436.62 379.65 435.12 396.65 411.23V411.23Z" fill="white"/>
<path opacity="0.3" d="M343.91 409.48C343.91 409.48 342.04 420.87 352.53 431.6C352.53 431.6 337.62 426.75 338.66 437.29L320.2 407.6C321.79 406.748 323.597 406.388 325.392 406.566C327.187 406.744 328.889 407.452 330.28 408.6C330.28 408.6 334.53 421.6 342.86 427.18C342.86 427.18 328.72 406.25 333.48 393.87L343.91 409.48Z" fill="#000275"/>
<path d="M366.1 356.93C377.314 359.874 387.644 365.498 396.204 373.317C404.764 381.137 411.296 390.918 415.24 401.82C410.66 410.751 404.251 418.619 396.43 424.91C390.882 429.358 384.696 432.945 378.08 435.55C359.505 426.813 344.469 411.995 335.46 393.55C341.329 378.293 352.109 365.423 366.1 356.97V356.93Z" fill="#1A43A4"/>
<path opacity="0.3" d="M413.47 405.29C413.47 405.29 403.21 375.51 378.38 368.14C353.55 360.77 348.09 412.92 375.33 434.21C375.33 434.21 343.46 414.85 336.1 392.82C336.1 392.82 346.41 366.16 364.6 357.82C364.6 357.82 381.53 360.25 394.98 372.82C403.295 380.816 409.916 390.403 414.45 401.01L413.47 405.29Z" fill="#000275"/>
<path d="M381.81 372.42C381.713 372.937 381.512 373.428 381.221 373.865C380.929 374.303 380.551 374.676 380.112 374.964C379.672 375.252 379.178 375.447 378.66 375.54C378.143 375.632 377.612 375.618 377.1 375.5C370.04 373.929 362.807 373.28 355.58 373.57C355.159 373.585 354.745 373.46 354.402 373.216C354.058 372.972 353.805 372.622 353.68 372.22C353.557 371.825 353.566 371.401 353.705 371.012C353.844 370.622 354.105 370.288 354.45 370.06C357.52 368.06 366.45 363.4 379.32 368.06C380.184 368.374 380.909 368.984 381.365 369.783C381.821 370.581 381.979 371.516 381.81 372.42V372.42ZM387.59 377.69C387.082 378.339 386.826 379.15 386.868 379.973C386.91 380.796 387.248 381.576 387.82 382.17C388.68 383.07 389.69 384.17 390.6 385.17C391.174 385.813 391.968 386.216 392.825 386.302C393.683 386.387 394.541 386.147 395.23 385.63C395.597 385.354 395.904 385.008 396.134 384.611C396.365 384.215 396.513 383.776 396.571 383.321C396.629 382.866 396.595 382.404 396.471 381.962C396.347 381.521 396.136 381.109 395.85 380.75C394.876 379.536 393.827 378.384 392.71 377.3C392.361 376.964 391.944 376.705 391.488 376.541C391.032 376.377 390.546 376.311 390.063 376.348C389.579 376.385 389.109 376.523 388.683 376.755C388.257 376.986 387.884 377.305 387.59 377.69V377.69Z" fill="#798FCB"/>
<path opacity="0.2" d="M384.53 498.11C383.851 498.961 383.006 499.666 382.047 500.181C381.088 500.697 380.035 501.013 378.95 501.11C373.37 501.28 366.88 489.51 367.46 474.69L367.17 475.07L367.83 473.07C367.83 473.07 374.22 494.16 384.53 498.11Z" fill="#000275"/>
<path d="M385.3 444L385.6 447.32C385.692 448.288 385.396 449.253 384.777 450.003C384.159 450.753 383.268 451.226 382.3 451.32C368.276 452.522 354.282 448.705 342.81 440.55C331.578 432.621 323.557 420.932 320.2 407.6C320.077 407.097 320.064 406.573 320.159 406.065C320.255 405.556 320.459 405.073 320.756 404.649C321.053 404.225 321.437 403.869 321.883 403.606C322.329 403.342 322.825 403.176 323.34 403.12L327.21 402.66" stroke="#04007B" stroke-width="2.56" stroke-linecap="round" stroke-linejoin="round"/>
<path d="M354.91 354.44C349.6 349.59 342.67 351.81 335.73 359.44C327.84 368.08 327.85 374.7 332.53 378.98" fill="#D9F7FE"/>
<path opacity="0.15" d="M335.73 359.4C337.511 357.392 339.549 355.627 341.79 354.15C340.2 358.15 338.6 364.35 341.91 368.67L332.53 378.94C327.85 374.66 327.84 368 335.73 359.4V359.4Z" fill="#000275"/>
<path d="M354.91 354.44C349.6 349.59 342.67 351.81 335.73 359.44C327.84 368.08 327.85 374.7 332.53 378.98" stroke="#04007B" stroke-width="2.56" stroke-linecap="round" stroke-linejoin="round"/>
<path d="M342.27 365.33C320.27 389.43 326.21 412.56 344.98 429.7C363.75 446.84 387.14 450 408.89 426.19C427.99 405.29 425.4 379.37 406.63 362.19C387.86 345.01 360.3 345.58 342.27 365.33Z" stroke="#04007B" stroke-width="2.56" stroke-linecap="round" stroke-linejoin="round"/>
<path opacity="0.3" d="M404.64 365.39C404.64 365.39 391.64 357.2 379.64 363.07L362 356C362 356 388.46 345.5 404.64 365.39Z" fill="#000275"/>
<path d="M390.28 440.17C374.314 435.465 360.021 426.303 349.08 413.76C340.963 404.331 334.973 393.263 331.52 381.31M418.2 412.26C415.201 397.268 407.496 383.623 396.207 373.312C384.917 363.001 370.632 356.561 355.43 354.93L418.2 412.26Z" stroke="#04007B" stroke-width="2.56" stroke-linecap="round" stroke-linejoin="round"/>
<path d="M366.1 356.93C352.232 365.226 341.57 377.96 335.84 393.07M415.24 401.82C410.66 410.751 404.251 418.619 396.43 424.91C390.882 429.358 384.696 432.945 378.08 435.55L415.24 401.82Z" stroke="#04007B" stroke-width="2.13" stroke-linecap="round" stroke-linejoin="round"/>
<path d="M405.43 371.91L396.29 363.78M409.89 425.07L403.07 418.85L409.89 425.07ZM402.44 432.43L395.91 425.57L402.44 432.43ZM349.86 370.24L343.29 364.24L349.86 370.24ZM343.3 379.19L335.94 373.93L343.3 379.19Z" stroke="#04007B" stroke-width="1.71" stroke-linecap="round" stroke-linejoin="round"/>
<path d="M362.72 480.62L347.38 464.74L342.22 471.3L357.02 487.55L362.72 480.62ZM299.83 435.11L319.86 444.41L315.36 451.43L295.15 442.77L299.83 435.11Z" fill="#D9F8F5"/>
<path opacity="0.2" d="M307.41 429C307.41 429 299.53 411.62 298.36 394.72C297.61 383.77 298.41 378.12 300.56 374.98C303.67 387.89 314.69 421.26 348.11 437.83L347.75 443.72C347.75 443.72 381.1 452.45 387.59 449.28L388.46 449.89C388.46 449.89 381.35 458.47 367.46 456.68C353.57 454.89 338.83 440.57 331.89 442.3C324.95 444.03 351.49 475.86 351.49 475.86L360.43 485.86L357.21 489.35L345 474.48L338 476.41C338 476.41 336.55 480.69 330.58 492.6C324.61 504.51 321.82 511.04 332.38 514.78C332.38 514.78 331.81 515.2 330.86 515.78C328.29 515.78 325.48 517.2 323.86 516.05C319.93 513.27 315.69 509.87 318.16 503.05C320.63 496.23 322.31 490.23 322.31 490.23L324.58 482.03C324.81 479.34 320.1 471.51 312.91 466.39C302.67 459.11 301.11 459.39 296.53 468.88C292.25 477.74 292.79 499.54 305.95 501.19C299.75 503.76 291.78 500.27 291.33 491.02C290.77 479 295.12 445.45 307.41 429V429Z" fill="#000275"/>
<path opacity="0.5" d="M325 515.7C343.49 505.7 368.55 468.34 368.55 468.34L366.82 475.62C363.76 479.62 358.33 493.07 345.16 505.38C334.11 515.67 328.64 516.87 325 515.7V515.7Z" fill="white"/>
<path d="M384.4 442.47C384.4 442.47 391.29 452.47 391.27 472.36C391.25 492.25 384.52 501 379 501.14C373.48 501.28 366.93 489.54 367.51 474.72C361.991 486.217 354.416 496.608 345.16 505.38C330.06 519.49 325.37 516.52 321.44 513.74C317.51 510.96 316.74 506.62 319.21 499.83C321.68 493.04 324.27 483.89 324.27 483.89L318.08 480.89C318.08 480.89 312.94 489.3 307.39 497.5C301.84 505.7 288.44 503.43 287.86 491.36C287.28 479.29 291.63 445.2 303.91 428.73C303.91 428.73 296.04 411.35 294.91 394.45C293.78 377.55 296.29 373.27 301.77 371.37C309.08 368.84 315.77 378.85 319.12 384.88C322.47 390.91 327.84 404.71 329.69 407.55" stroke="#04007B" stroke-width="2.56" stroke-linecap="round" stroke-linejoin="round"/>
<path d="M309.45 494.32C307.152 490.844 303.876 488.126 300.036 486.509C296.196 484.891 291.963 484.446 287.87 485.23M389.67 487.21C389.67 487.21 378.9 478.62 368.97 488.28L389.67 487.21ZM317.77 382.71C317.77 382.71 303.26 380.51 294.61 390.37L317.77 382.71ZM339.3 510.4C338.48 508.175 337.214 506.14 335.581 504.421C333.947 502.701 331.98 501.333 329.8 500.4C326.41 499.059 322.676 498.856 319.16 499.82L339.3 510.4Z" stroke="#04007B" stroke-width="1.71" stroke-linecap="round" stroke-linejoin="round"/>
<path d="M313.864 462.22L332.635 475.58C335.375 477.53 339.177 476.89 341.128 474.149L349.547 462.32C351.497 459.579 350.857 455.777 348.117 453.827L329.346 440.467C326.605 438.516 322.803 439.157 320.853 441.897L312.433 453.727C310.483 456.467 311.123 460.27 313.864 462.22Z" fill="#DBF5EF"/>
<path d="M313.864 462.22L332.635 475.58C335.375 477.53 339.177 476.89 341.128 474.149L349.547 462.32C351.497 459.579 350.857 455.777 348.117 453.827L329.346 440.467C326.605 438.516 322.803 439.157 320.853 441.897L312.433 453.727C310.483 456.467 311.123 460.27 313.864 462.22Z" stroke="#04007B" stroke-width="2.13" stroke-linecap="round" stroke-linejoin="round"/>
<path d="M320.57 387.83L314.87 388C314.771 388.002 314.675 388.029 314.588 388.077C314.502 388.125 314.429 388.193 314.375 388.276C314.32 388.358 314.287 388.453 314.278 388.551C314.268 388.649 314.283 388.749 314.32 388.84L317.38 396.36C317.427 396.472 317.506 396.568 317.608 396.636C317.709 396.703 317.828 396.74 317.95 396.74H324.61M362.52 481.28L347.24 465.56L362.52 481.28ZM358.81 487.55L343.14 471.31L358.81 487.55ZM299.22 436.04L318.84 444.7L299.22 436.04ZM314.65 450.59L296.69 442.19L314.65 450.59ZM391.27 472.36L383.85 471.85C383.289 471.813 382.758 471.583 382.347 471.198C381.937 470.813 381.673 470.298 381.6 469.74L380.6 462.05C380.56 461.726 380.585 461.396 380.674 461.082C380.763 460.767 380.913 460.474 381.118 460.218C381.322 459.963 381.575 459.751 381.862 459.595C382.149 459.439 382.465 459.342 382.79 459.31L390.09 458.61L391.27 472.36Z" stroke="#04007B" stroke-width="2.13" stroke-linecap="round" stroke-linejoin="round"/>
<path d="M366.23 474.35C366.536 473.659 366.793 472.947 367 472.22C367.225 471.477 367.396 470.718 367.51 469.95C367.805 468.394 367.691 466.789 367.18 465.29C368.11 466.686 368.665 468.297 368.79 469.97C368.887 470.81 368.923 471.655 368.9 472.5C368.888 473.364 368.818 474.226 368.69 475.08C368.636 475.418 368.449 475.721 368.172 475.921C367.894 476.122 367.548 476.204 367.21 476.15C366.872 476.096 366.569 475.909 366.368 475.632C366.168 475.354 366.086 475.008 366.14 474.67C366.16 474.561 366.19 474.454 366.23 474.35V474.35ZM303.08 427.69C303.816 427.234 304.521 426.729 305.19 426.18C305.89 425.62 306.557 425.03 307.19 424.41C308.498 423.145 309.684 421.759 310.73 420.27C310.042 421.994 309.192 423.648 308.19 425.21C307.68 426.01 307.14 426.77 306.55 427.52C305.961 428.296 305.32 429.032 304.63 429.72C304.509 429.839 304.366 429.933 304.209 429.996C304.052 430.06 303.884 430.092 303.714 430.091C303.545 430.089 303.377 430.054 303.221 429.988C303.065 429.922 302.924 429.826 302.805 429.705C302.686 429.584 302.592 429.441 302.529 429.284C302.465 429.127 302.433 428.959 302.435 428.789C302.436 428.62 302.471 428.452 302.537 428.296C302.603 428.14 302.699 427.999 302.82 427.88L303.06 427.7L303.08 427.69Z" fill="#04007B"/>
<path d="M342.73 450.42L335.95 459.95L339.19 464.29L331.88 475.48" stroke="#04007B" stroke-width="1.71" stroke-linecap="round" stroke-linejoin="round"/>
<path d="M324.64 457.76C326.584 457.76 328.16 456.184 328.16 454.24C328.16 452.296 326.584 450.72 324.64 450.72C322.696 450.72 321.12 452.296 321.12 454.24C321.12 456.184 322.696 457.76 324.64 457.76Z" fill="#42E400"/>
<path d="M324.64 457.76C326.584 457.76 328.16 456.184 328.16 454.24C328.16 452.296 326.584 450.72 324.64 450.72C322.696 450.72 321.12 452.296 321.12 454.24C321.12 456.184 322.696 457.76 324.64 457.76Z" stroke="#04007B" stroke-width="1.71" stroke-linecap="round" stroke-linejoin="round"/>
<path d="M239.3 309.65C239.3 309.65 233.21 341.75 301.58 376.75C302.238 377.091 302.988 377.213 303.72 377.095C304.453 376.978 305.128 376.629 305.646 376.099C306.165 375.569 306.499 374.887 306.601 374.153C306.702 373.418 306.565 372.671 306.21 372.02C298.21 357.45 285.87 330.13 294.83 314.39" fill="#FF0002"/>
<path opacity="0.2" d="M294.83 314.39C291.76 319.79 291.2 326.54 292.1 333.68C275.496 332.149 259.004 329.584 242.72 326C238.1 315.94 239.3 309.64 239.3 309.64L294.83 314.39Z" fill="#000275"/>
<path d="M239.3 309.65C239.3 309.65 233.21 341.75 301.58 376.75C302.238 377.091 302.988 377.213 303.72 377.095C304.453 376.978 305.128 376.629 305.646 376.099C306.165 375.569 306.499 374.887 306.601 374.153C306.702 373.418 306.565 372.671 306.21 372.02C298.21 357.45 285.87 330.13 294.83 314.39" stroke="#04007B" stroke-width="2.56" stroke-linecap="round" stroke-linejoin="round"/>
<path d="M338 263.23L344.15 264.33C345.249 264.527 346.291 264.964 347.202 265.608C348.114 266.253 348.873 267.09 349.425 268.06C349.977 269.03 350.31 270.11 350.399 271.223C350.488 272.336 350.331 273.454 349.94 274.5L335.94 311.86C335.546 312.898 334.93 313.838 334.136 314.614C333.341 315.389 332.386 315.981 331.338 316.349C330.29 316.717 329.175 316.851 328.069 316.742C326.964 316.634 325.896 316.285 324.94 315.72L319.59 312.52" fill="#FF0002"/>
<path d="M199.17 188.06L219.72 193.5L235.19 189.8L236.4 186.8L220.85 179.9C220.85 179.9 207.12 178.37 199.17 188.06Z" fill="#D9F8F5"/>
<path opacity="0.2" d="M215.7 180C221.89 182.72 228.99 186.34 233.54 190.24L219.72 193.54L204 189.34L200.52 186.56C205.25 181.86 211.41 180.38 215.7 180V180Z" fill="#000275"/>
<path d="M130.29 172.36C130.29 172.36 120.88 173.08 116.1 179.81C111.32 186.54 93.35 180.51 93.35 180.51C93.35 180.51 91.94 163.5 112 162L130.29 172.36Z" fill="#D9F8F5"/>
<path opacity="0.2" d="M116.1 179.81C111.33 186.54 93.35 180.51 93.35 180.51C93.35 180.51 92.6 171.4 100.05 165.9C108.899 167.633 117.594 170.078 126.05 173.21C123 174.13 118.8 176 116.1 179.81V179.81Z" fill="#000275"/>
<path d="M66.94 182.29C105.73 173.22 232.88 154.4 337.99 263.23L319.6 312.42C168.86 325.54 85.27 227.89 62 195.59C61.1748 194.454 60.6432 193.132 60.4525 191.74C60.2617 190.349 60.4178 188.933 60.9066 187.616C61.3955 186.3 62.2022 185.125 63.2548 184.196C64.3074 183.267 65.5733 182.612 66.94 182.29V182.29Z" fill="#D9F8F5"/>
<path opacity="0.4" d="M314.27 253.55C310.931 257.82 307.989 262.385 305.48 267.19C304.608 268.909 303.092 270.215 301.263 270.823C299.434 271.432 297.438 271.294 295.71 270.44C266.47 256 151.25 200.73 70.21 187.3C70.21 187.3 182.05 175.24 314.27 253.55Z" fill="white"/>
<path d="M62 195.59C61.1749 194.45 60.6451 193.123 60.4579 191.728C60.2707 190.334 60.4319 188.914 60.9271 187.597C61.4223 186.279 62.2361 185.105 63.2959 184.179C64.3556 183.253 65.6282 182.604 67 182.29C92.8999 176.426 119.475 174.098 146 175.37C129.573 198.383 120.054 225.605 118.56 253.84C97.1075 237.128 78.0733 217.525 62 195.59V195.59Z" fill="#FF0002"/>
<path opacity="0.2" d="M283.73 218.58C275.35 221.19 258.01 216.82 250.37 217.39C242.73 217.96 244.37 240.39 225.37 235.29C206.37 230.19 215.49 192.2 215.49 192.2C211.29 190.9 186.16 186.56 186.16 186.56C180.68 199.87 151.77 198.73 145.32 200.11C138.87 201.49 137.15 219.3 121.21 217.65C105.27 216 107.8 182.8 107.8 182.8C100.056 182.568 92.3884 181.203 85.04 178.75C126.82 172.1 206.16 169.05 283.73 218.58Z" fill="#000275"/>
<path d="M146 175.37C129.573 198.383 120.054 225.605 118.56 253.84L146 175.37ZM66.94 182.29C105.73 173.22 232.88 154.4 337.99 263.23L319.6 312.42C168.86 325.54 85.27 227.89 62 195.59C61.1748 194.454 60.6432 193.132 60.4525 191.74C60.2617 190.349 60.4178 188.933 60.9066 187.616C61.3955 186.3 62.2022 185.125 63.2548 184.196C64.3074 183.267 65.5733 182.612 66.94 182.29V182.29Z" stroke="#04007B" stroke-width="2.56" stroke-linecap="round" stroke-linejoin="round"/>
<path d="M109.93 162.75C109.93 162.75 122.34 167.6 128.15 172.56C128.15 172.56 119.58 174.5 117.35 181.56C115.12 188.62 113.23 198.67 115.89 204.25C118.55 209.83 122.27 216.52 129.78 213.43C137.29 210.34 137.29 194.31 145.36 194.07C153.43 193.83 168.97 190.17 173.28 186.7C177.59 183.23 181.89 169.7 181.84 155.13L181.72 150.76C181.72 150.76 189.59 139.87 184.46 131.23C179.33 122.59 174.62 122.34 174.62 122.34L125.48 126C125.48 126 100.75 112.07 94.42 113C88.09 113.93 88 121.5 91.86 126.85C95.72 132.2 118.28 152.78 118.28 152.78L117.48 159.78L109.93 162.75Z" fill="#D9F8F5"/>
<path opacity="0.2" d="M139.95 145.26L147.06 145.94L144.64 169.42L138.96 168.43L139.95 145.26Z" fill="#000275"/>
<path opacity="0.5" d="M94.42 113C97.03 112.62 102.77 114.77 108.61 117.42L115.21 121.76C115.21 121.76 98.97 115.18 94.29 119.4C91.75 121.69 96.52 129.89 101.41 136.9C98.0208 133.752 94.8312 130.395 91.86 126.85C88 121.53 88.08 114 94.42 113V113ZM115.89 204.21C113.23 198.63 115.12 188.55 117.35 181.52C119.2 175.7 125.4 173.37 127.47 172.75C128.383 172.467 129.335 172.336 130.29 172.36C130.29 172.36 114.05 191.78 119.61 210.56C118.126 208.596 116.878 206.465 115.89 204.21Z" fill="white"/>
<path opacity="0.2" d="M180 125.35C180 125.35 181.88 136.96 172.65 151.8C163.42 166.64 153 174.2 153 174.2C153 174.2 159.93 176.37 172.62 162.52C185.31 148.67 192.15 133.44 180 125.35V125.35ZM125.48 126L174.62 122.26C174.62 122.26 176.87 122.38 179.96 125.26C172.857 133.491 162.92 138.753 152.12 140C134.91 141.85 119.01 132.87 110.18 118.17C118 121.82 125.48 126 125.48 126V126Z" fill="#000275"/>
<path d="M183.23 146.36C181.569 143.729 178.964 141.833 175.95 141.06L172.61 146.36C172.61 146.36 176.23 149.99 179.12 153.52" fill="#FF0002"/>
<path d="M249.47 145.47L280.1 143.37C280.1 143.37 302.67 125.23 310.39 129.06C318.11 132.89 312.89 144.22 307.16 151.92C301.43 159.62 286.51 168.92 286.51 168.92C286.51 168.92 286.74 198.07 277.01 205.06C267.28 212.05 246.63 207.57 240.86 218.06C235.09 228.55 222.62 237.29 218.46 221.06C214.3 204.83 223 193.81 231.1 190C231.1 190 241.79 189.53 225.56 184.5C225.56 184.5 219.39 181.77 220.29 178.42L223.05 168.42C223.05 168.42 203.43 157 197.4 143.19C191.37 129.38 203.61 126.48 216.19 136.4C228.77 146.32 249.47 145.47 249.47 145.47Z" fill="#D9F8F5"/>
<path opacity="0.2" d="M247.09 163.12L251.68 163.96L248.18 187.3L242.23 186.45L247.09 163.12Z" fill="#000275"/>
<path opacity="0.5" d="M231.1 190C231.1 190 231.68 190 232.36 189.87C229.27 192.87 221.19 201.93 222.24 213.41C222.624 219.024 223.63 224.578 225.24 229.97C222.38 229.42 219.89 226.8 218.43 221.09C214.3 204.84 223 193.81 231.1 190V190Z" fill="white"/>
<path opacity="0.2" d="M240.86 218.1C237.76 223.75 232.72 228.88 228.07 229.89C230.78 225.98 233.61 218.73 237.12 211.09C242.51 199.32 256.9 201.77 268.84 201.45C274.156 201.178 279.19 198.977 283 195.26C281.61 199.51 279.68 203.16 277 205.1C267.27 212.1 246.63 207.61 240.86 218.1V218.1ZM301.91 143.37C304.842 144.718 308.023 145.437 311.25 145.48C310.054 147.729 308.687 149.882 307.16 151.92C301.43 159.62 286.51 168.92 286.51 168.92L286.03 161.35C290.05 160 297 140.87 301.91 143.37V143.37ZM216.19 136.4C228.77 146.31 249.47 145.47 249.47 145.47L280.1 143.37C280.1 143.37 283.2 140.88 287.49 137.94C279.77 150.71 266.79 159.09 252.09 159.09C236.6 159.09 223.02 149.79 215.49 135.86C215.72 136 216 136.21 216.19 136.4Z" fill="#000275"/>
<path d="M280.1 143.37L282.37 148.29C282.497 148.568 282.52 148.882 282.436 149.175C282.351 149.468 282.165 149.722 281.91 149.89L277.45 152.81C277.309 152.903 277.151 152.966 276.986 152.997C276.82 153.028 276.65 153.026 276.485 152.991C276.321 152.955 276.165 152.888 276.026 152.791C275.888 152.695 275.77 152.572 275.68 152.43L273.11 148.43" fill="#FF0002"/>
<path opacity="0.2" d="M285.72 182C285.52 183.71 285.27 185.49 284.95 187.28C273.58 186.4 248.7 179.79 248.7 179.79L250 176.4C260 180.55 278.14 181.71 285.72 182Z" fill="#000275"/>
<path d="M275.3 213.4C252.148 240.129 239.372 274.288 239.3 309.65M338 263.23L344.15 264.33C345.249 264.527 346.291 264.964 347.202 265.608C348.114 266.253 348.873 267.09 349.425 268.06C349.977 269.03 350.31 270.11 350.399 271.223C350.488 272.336 350.331 273.454 349.94 274.5L335.94 311.86C335.546 312.898 334.93 313.838 334.136 314.614C333.341 315.389 332.386 315.981 331.338 316.349C330.29 316.717 329.175 316.851 328.069 316.742C326.964 316.634 325.896 316.285 324.94 315.72L319.59 312.52L338 263.23Z" stroke="#04007B" stroke-width="2.56" stroke-linecap="round" stroke-linejoin="round"/>
<path opacity="0.2" d="M61.24 186.8C85.64 215.06 116.24 235.89 147.55 251.22C147.949 251.415 148.399 251.481 148.837 251.408C149.275 251.336 149.679 251.128 149.993 250.813C150.308 250.499 150.516 250.095 150.588 249.657C150.661 249.219 150.595 248.769 150.4 248.37C148 243.402 147.175 237.82 148.034 232.37C148.893 226.92 151.396 221.863 155.207 217.874C159.018 213.885 163.957 211.154 169.362 210.048C174.767 208.942 180.381 209.512 185.453 211.683C190.525 213.854 194.813 217.522 197.744 222.196C200.676 226.87 202.11 232.328 201.855 237.839C201.6 243.35 199.669 248.652 196.319 253.036C192.969 257.42 188.361 260.676 183.11 262.37C182.697 262.512 182.338 262.777 182.08 263.13C181.823 263.482 181.681 263.906 181.672 264.342C181.663 264.779 181.789 265.207 182.032 265.57C182.275 265.933 182.623 266.212 183.03 266.37C219.14 279.518 256.699 288.281 294.9 292.47C298.205 292.817 301.534 292.082 304.386 290.374C307.237 288.666 309.456 286.078 310.71 283C316.33 269.3 321.08 261.28 327.71 253C331.17 256.273 334.603 259.673 338.01 263.2L319.6 312.42C168.86 325.54 85.27 227.89 62 195.59C61.0769 194.337 60.5175 192.853 60.3834 191.302C60.2493 189.751 60.5457 188.193 61.24 186.8V186.8Z" fill="#000275"/>
<path d="M176.92 253.54C190.296 253.54 201.14 242.696 201.14 229.32C201.14 215.944 190.296 205.1 176.92 205.1C163.544 205.1 152.7 215.944 152.7 229.32C152.7 242.696 163.544 253.54 176.92 253.54Z" fill="#FF0002"/>
<path opacity="0.4" d="M199.87 233.59C199.855 227.971 197.887 222.532 194.303 218.203C190.72 213.875 185.743 210.927 180.225 209.864C174.708 208.8 168.992 209.688 164.056 212.374C159.121 215.061 155.272 219.379 153.17 224.59C153.829 221.281 155.171 218.145 157.112 215.385C159.052 212.624 161.548 210.3 164.439 208.56C167.33 206.82 170.553 205.703 173.9 205.28C177.248 204.858 180.647 205.139 183.88 206.107C187.112 207.074 190.107 208.706 192.673 210.897C195.238 213.089 197.318 215.793 198.778 218.835C200.238 221.877 201.047 225.19 201.152 228.563C201.258 231.935 200.657 235.293 199.39 238.42C199.711 236.83 199.872 235.212 199.87 233.59Z" fill="white"/>
<path d="M176.92 253.54C190.296 253.54 201.14 242.696 201.14 229.32C201.14 215.944 190.296 205.1 176.92 205.1C163.544 205.1 152.7 215.944 152.7 229.32C152.7 242.696 163.544 253.54 176.92 253.54Z" stroke="#04007B" stroke-width="2.56" stroke-linecap="round" stroke-linejoin="round"/>
<path d="M176.92 245.26C185.723 245.26 192.86 238.123 192.86 229.32C192.86 220.517 185.723 213.38 176.92 213.38C168.117 213.38 160.98 220.517 160.98 229.32C160.98 238.123 168.117 245.26 176.92 245.26Z" fill="#00AAF9"/>
<path opacity="0.4" d="M169.17 222.49C168.969 223.291 168.868 224.114 168.87 224.94C168.869 227.041 169.508 229.093 170.702 230.823C171.896 232.552 173.589 233.876 175.555 234.619C177.521 235.362 179.666 235.488 181.705 234.981C183.745 234.474 185.581 233.357 186.97 231.78C186.598 233.304 185.885 234.723 184.883 235.931C183.882 237.138 182.619 238.102 181.19 238.749C179.762 239.396 178.204 239.71 176.636 239.666C175.068 239.622 173.531 239.222 172.14 238.496C170.75 237.771 169.543 236.738 168.61 235.477C167.678 234.216 167.044 232.759 166.758 231.216C166.472 229.674 166.54 228.087 166.958 226.575C167.376 225.063 168.132 223.666 169.17 222.49V222.49Z" fill="white"/>
<path d="M176.92 245.26C185.723 245.26 192.86 238.123 192.86 229.32C192.86 220.517 185.723 213.38 176.92 213.38C168.117 213.38 160.98 220.517 160.98 229.32C160.98 238.123 168.117 245.26 176.92 245.26Z" stroke="#04007B" stroke-width="2.56" stroke-linecap="round" stroke-linejoin="round"/>
<path d="M276.93 145.17C282.01 141.67 304.61 126.78 310.39 129.06C316.17 131.34 316.16 139.74 308.46 150.25C300.76 160.76 286.51 169 286.51 169C286.51 169 286.86 198.12 275.3 205.57C263.74 213.02 249.46 208.13 244.3 213.44C239.14 218.75 235.34 231 229 231C222.66 231 217.83 225.8 217.52 213.42C217.21 201.04 223.66 188.09 236.12 189.93M203.3 183.79C203.3 183.79 212.59 178.49 221.5 178.41L203.3 183.79ZM223.05 168.43C223.05 168.43 194.66 148.61 195.38 136C196.1 123.39 214.3 134.2 214.3 134.2L223.05 168.43Z" stroke="#04007B" stroke-width="2.56" stroke-linecap="round" stroke-linejoin="round"/>
<path d="M285.23 169L286.51 160.12L287.79 168.95V169C287.82 169.332 287.722 169.662 287.516 169.924C287.309 170.185 287.01 170.358 286.681 170.405C286.351 170.452 286.016 170.372 285.744 170.179C285.472 169.986 285.285 169.697 285.22 169.37C285.213 169.247 285.217 169.123 285.23 169V169Z" fill="#04007B"/>
<path d="M252.09 152.27C278.892 152.27 300.62 130.542 300.62 103.74C300.62 76.9376 278.892 55.21 252.09 55.21C225.288 55.21 203.56 76.9376 203.56 103.74C203.56 130.542 225.288 152.27 252.09 152.27Z" fill="#D9F8F5"/>
<path opacity="0.5" d="M212.75 75.32C217.01 69.4217 222.543 64.5572 228.938 61.0865C235.333 57.6157 242.426 55.6277 249.694 55.2695C256.961 54.9113 264.216 56.1922 270.921 59.0173C277.626 61.8423 283.61 66.1392 288.43 71.59C272.82 67.1 242.99 62.99 225.43 89.3C214.61 105.47 212.13 93.66 212.75 75.32Z" fill="white"/>
<path opacity="0.2" d="M290.75 133.06C286.388 138.816 280.795 143.526 274.38 146.845C267.965 150.164 260.89 152.009 253.671 152.244C246.453 152.48 239.272 151.101 232.654 148.208C226.037 145.314 220.149 140.979 215.42 135.52L270.63 123.47L290.75 133.06Z" fill="#000275"/>
<path d="M252.09 152.27C278.892 152.27 300.62 130.542 300.62 103.74C300.62 76.9376 278.892 55.21 252.09 55.21C225.288 55.21 203.56 76.9376 203.56 103.74C203.56 130.542 225.288 152.27 252.09 152.27Z" stroke="#04007B" stroke-width="2.56" stroke-linecap="round" stroke-linejoin="round"/>
<path d="M216.19 136.4C211.06 130.758 207.331 123.987 205.305 116.635C203.28 109.284 203.014 101.558 204.531 94.0849C206.047 86.6116 209.302 79.6006 214.033 73.6197C218.764 67.6389 224.837 62.8565 231.76 59.66C238.19 60.4211 244.436 62.31 250.21 65.24C273.47 76.98 284.37 102.24 274.55 121.7C265 140.73 239.09 147.12 216.19 136.4V136.4Z" fill="#1A43A4"/>
<g opacity="0.3">
<path opacity="0.3" d="M236.4 128.82C266.68 133.7 268.74 109.54 268.84 108.01L267.48 131.12C255.26 142.53 234.75 145.12 216.19 136.4C209.543 129.095 205.289 119.932 204 110.14C208.93 117.15 218.53 125.94 236.4 128.82Z" fill="#000275"/>
</g>
<path d="M270.93 83.47C278.76 95.38 280.63 109.66 274.55 121.7C269.11 132.5 258.43 139.22 246.03 141.06C267.39 116.42 270.93 83.47 270.93 83.47Z" fill="#B8D3E2"/>
<path d="M216.19 136.4C211.06 130.758 207.331 123.987 205.305 116.635C203.28 109.284 203.014 101.558 204.531 94.0849C206.047 86.6116 209.302 79.6006 214.033 73.6197C218.764 67.6389 224.837 62.8565 231.76 59.66C238.19 60.4211 244.436 62.31 250.21 65.24C273.47 76.98 284.37 102.24 274.55 121.7C265 140.73 239.09 147.12 216.19 136.4V136.4Z" stroke="#04007B" stroke-width="2.56" stroke-linecap="round" stroke-linejoin="round"/>
<path d="M281.51 134.32C288.507 134.32 294.18 128.647 294.18 121.65C294.18 114.653 288.507 108.98 281.51 108.98C274.513 108.98 268.84 114.653 268.84 121.65C268.84 128.647 274.513 134.32 281.51 134.32Z" fill="#B8D3E2"/>
<path d="M281.51 134.32C288.507 134.32 294.18 128.647 294.18 121.65C294.18 114.653 288.507 108.98 281.51 108.98C274.513 108.98 268.84 114.653 268.84 121.65C268.84 128.647 274.513 134.32 281.51 134.32Z" stroke="#04007B" stroke-width="2.56" stroke-linecap="round" stroke-linejoin="round"/>
<path d="M285.78 136.88C292.777 136.88 298.45 131.207 298.45 124.21C298.45 117.213 292.777 111.54 285.78 111.54C278.783 111.54 273.11 117.213 273.11 124.21C273.11 131.207 278.783 136.88 285.78 136.88Z" fill="#D9F8F5"/>
<path opacity="0.2" d="M273.12 124.67C276.8 127.018 280.983 128.463 285.328 128.885C289.673 129.307 294.057 128.696 298.12 127.1C297.422 130.09 295.662 132.724 293.167 134.514C290.672 136.304 287.612 137.126 284.556 136.829C281.5 136.532 278.656 135.136 276.553 132.899C274.449 130.663 273.229 127.738 273.12 124.67Z" fill="#000275"/>
<path d="M285.78 136.88C292.777 136.88 298.45 131.207 298.45 124.21C298.45 117.213 292.777 111.54 285.78 111.54C278.783 111.54 273.11 117.213 273.11 124.21C273.11 131.207 278.783 136.88 285.78 136.88Z" stroke="#04007B" stroke-width="2.56" stroke-linecap="round" stroke-linejoin="round"/>
<path d="M244.34 213.4C244.34 213.4 236 195 219.39 201.49M246.71 140.27C268.48 115.58 270.93 83.47 270.93 83.47L246.71 140.27ZM251.65 166.41L248.65 185.09C248.594 185.434 248.469 185.763 248.281 186.057C248.094 186.351 247.849 186.603 247.56 186.799C247.272 186.994 246.947 187.129 246.605 187.195C246.262 187.26 245.91 187.255 245.57 187.18L223.14 182.27C222.477 182.137 221.894 181.747 221.519 181.184C221.144 180.621 221.008 179.933 221.14 179.27L224.4 163.45C224.536 162.841 224.889 162.302 225.393 161.934C225.897 161.566 226.518 161.394 227.14 161.45L249.33 163.45C249.682 163.479 250.024 163.58 250.336 163.747C250.647 163.914 250.92 164.144 251.138 164.422C251.356 164.7 251.514 165.02 251.602 165.363C251.69 165.705 251.706 166.061 251.65 166.41V166.41ZM250.37 174.32C250.37 174.32 270.42 179.1 286.03 178.41L250.37 174.32ZM284.72 187.24C284.72 187.24 265.42 185.54 249.47 179.9L284.72 187.24ZM212.4 133.17C212.722 136.718 212.137 140.289 210.699 143.548C209.261 146.807 207.018 149.647 204.18 151.8L212.4 133.17ZM302.66 156.77C302.66 156.77 291.66 153.56 287.85 138.16L302.66 156.77Z" stroke="#04007B" stroke-width="2.56" stroke-linecap="round" stroke-linejoin="round"/>
<path d="M339.39 67.38C339.39 67.38 352.39 60.83 363.55 70.9C374.71 80.97 375.3 88.59 393.33 92.84L372.6 138.11C372.6 138.11 362.42 138.43 351.47 125.99C340.52 113.55 332.7 108.09 318.05 109.56" fill="white"/>
<path d="M359.37 82.68C359.37 82.68 353.29 82.54 350.48 86.62L348.86 86.91C348.86 86.91 343.46 86.03 339.34 94.4C335.22 102.77 342.58 109.03 347.25 111.32C351.92 113.61 360.07 118.82 365.88 116.84C371.69 114.86 372.49 113.23 372.67 111.21C372.784 109.994 372.7 108.768 372.42 107.58L376.67 107.26C376.67 107.26 380.36 103.84 379.56 101.81C378.715 99.9896 377.736 98.2347 376.63 96.56C376.63 96.56 378.92 91.74 374.12 89.9C369.32 88.06 367.73 88.29 367.73 88.29C367.73 88.29 363.32 82.17 359.37 82.68V82.68Z" fill="#68974E"/>
<path d="M366.83 116.51C360.73 112.85 346.98 104.57 342.63 101.51C341.591 100.711 340.743 99.6908 340.148 98.5232C339.553 97.3556 339.226 96.07 339.19 94.76C335.4 102.97 342.64 109.1 347.25 111.36C351.86 113.62 360.07 118.86 365.88 116.88L366.83 116.51Z" fill="#517A37"/>
<path d="M355.75 93.64C357.028 93.2061 358.384 93.0494 359.727 93.1805C361.07 93.3115 362.37 93.7272 363.54 94.4C367.89 96.67 368.33 98.61 367.02 100.22C367.02 100.22 363.53 101.5 359.12 98.3C355.66 95.79 355.75 93.64 355.75 93.64" fill="#FEFEFE"/>
<path d="M348.11 89.59C348.11 89.59 353.31 81.01 360.56 82.91C367.81 84.81 368.86 90.63 367.79 92.65" stroke="#04007B" stroke-width="0.79" stroke-linecap="round" stroke-linejoin="round"/>
<path d="M366.93 92.31C366.93 92.31 379.43 95.75 378.93 101.14M367.76 88.76C370.292 88.5631 372.825 89.1309 375.03 90.39C378.76 92.5 376.47 96.89 376.47 96.89L367.76 88.76ZM356.73 87C356.73 87 365.54 86 367.32 93.89L356.73 87Z" stroke="#04007B" stroke-width="0.79" stroke-linecap="round" stroke-linejoin="round"/>
<path d="M379.22 104.79C379.454 104.209 379.454 103.561 379.22 102.98C379.66 102.22 378.85 100.25 375.79 98.98C373.364 98.0759 370.845 97.4421 368.28 97.09C368.28 97.09 366.47 92.91 359.99 91.89C356.71 91.36 354.92 90.46 353.89 91.28C353.33 91.72 353.33 92.28 355.74 93.68C357.018 93.2461 358.374 93.0894 359.717 93.2205C361.06 93.3515 362.36 93.7673 363.53 94.44C367.88 96.71 368.32 98.65 367.01 100.26C367.01 100.26 363.52 101.54 359.11 98.34C355.65 95.83 355.74 93.68 355.74 93.68" stroke="#04007B" stroke-width="0.79" stroke-linecap="round" stroke-linejoin="round"/>
<path d="M354.72 95.45C356.128 97.9051 358.313 99.8224 360.93 100.9C365.57 103 366.87 101.6 366.72 100.31" stroke="#04007B" stroke-width="0.79" stroke-linecap="round" stroke-linejoin="round"/>
<path d="M367.43 99.59C367.43 99.59 370.43 97.74 374.56 100.05C378.69 102.36 379.66 104.67 379.17 105.6C378.68 106.53 374.58 106.28 371.71 104.8C369.819 103.722 368.196 102.232 366.96 100.44" fill="#FEFEFE"/>
<path d="M358 90.07C358 90.07 370.28 92.27 368.3 97.07M367.43 99.59C367.43 99.59 370.43 97.74 374.56 100.05C378.69 102.36 379.66 104.67 379.17 105.6C378.68 106.53 374.58 106.28 371.71 104.8C369.819 103.722 368.196 102.232 366.96 100.44L367.43 99.59Z" stroke="#04007B" stroke-width="0.79" stroke-linecap="round" stroke-linejoin="round"/>
<path d="M361.4 98.84C362.819 98.84 363.97 97.6894 363.97 96.27C363.97 94.8506 362.819 93.7 361.4 93.7C359.981 93.7 358.83 94.8506 358.83 96.27C358.83 97.6894 359.981 98.84 361.4 98.84Z" fill="#04007B"/>
<path d="M360.92 96.22C361.196 96.22 361.42 95.9961 361.42 95.72C361.42 95.4438 361.196 95.22 360.92 95.22C360.644 95.22 360.42 95.4438 360.42 95.72C360.42 95.9961 360.644 96.22 360.92 96.22Z" fill="#FEFEFE"/>
<path d="M362.25 96.92C362.526 96.92 362.75 96.6961 362.75 96.42C362.75 96.1438 362.526 95.92 362.25 95.92C361.974 95.92 361.75 96.1438 361.75 96.42C361.75 96.6961 361.974 96.92 362.25 96.92Z" fill="#FEFEFE"/>
<path d="M362.22 95.55C362.435 95.55 362.61 95.3754 362.61 95.16C362.61 94.9446 362.435 94.77 362.22 94.77C362.005 94.77 361.83 94.9446 361.83 95.16C361.83 95.3754 362.005 95.55 362.22 95.55Z" fill="#FEFEFE"/>
<path d="M373 104.69C374.292 104.69 375.34 103.642 375.34 102.35C375.34 101.058 374.292 100.01 373 100.01C371.708 100.01 370.66 101.058 370.66 102.35C370.66 103.642 371.708 104.69 373 104.69Z" fill="#04007B"/>
<path d="M372.34 102.49C372.616 102.49 372.84 102.266 372.84 101.99C372.84 101.714 372.616 101.49 372.34 101.49C372.064 101.49 371.84 101.714 371.84 101.99C371.84 102.266 372.064 102.49 372.34 102.49Z" fill="#FEFEFE"/>
<path d="M373.68 103.19C373.956 103.19 374.18 102.966 374.18 102.69C374.18 102.414 373.956 102.19 373.68 102.19C373.404 102.19 373.18 102.414 373.18 102.69C373.18 102.966 373.404 103.19 373.68 103.19Z" fill="#FEFEFE"/>
<path d="M373.65 101.82C373.865 101.82 374.04 101.645 374.04 101.43C374.04 101.215 373.865 101.04 373.65 101.04C373.435 101.04 373.26 101.215 373.26 101.43C373.26 101.645 373.435 101.82 373.65 101.82Z" fill="#FEFEFE"/>
<path d="M371.71 107.46C371.71 107.46 373.88 109.78 371.86 113.71M378.07 106.1C378.07 106.1 376.79 107.85 375.67 107.22C375.67 107.22 371.38 109.32 366.11 104.16L378.07 106.1ZM363.44 101.8C362.364 102.173 361.221 102.32 360.086 102.23C358.95 102.141 357.845 101.817 356.84 101.28L363.44 101.8Z" stroke="#04007B" stroke-width="0.79" stroke-linecap="round" stroke-linejoin="round"/>
<path d="M350.06 87.0599C350.06 87.0599 344.94 85.6799 341.06 91.2C337.18 96.72 337.72 104.1 343.8 108.85C349.88 113.6 361.88 120.05 365.85 117.23" stroke="#04007B" stroke-width="0.79" stroke-linecap="round" stroke-linejoin="round"/>
<path d="M350.46 102.38C352.122 102.878 353.641 103.766 354.89 104.97C357.678 107.534 360.759 109.76 364.07 111.6C366.53 112.77 371.98 113.29 372.7 114.16C373.42 115.03 371.85 116.35 369.84 115.86C369.84 115.86 369.66 117.45 368.45 117.6C367.24 117.75 365.38 117.03 363.56 116.03C360.505 114.246 357.541 112.311 354.68 110.23C353.031 108.76 351.269 107.422 349.41 106.23C347.75 105.35 347.11 104.34 347.86 103.23C348.61 102.12 350.46 102.38 350.46 102.38V102.38Z" fill="#B1654E"/>
<path d="M350.46 102.38C352.122 102.878 353.641 103.766 354.89 104.97C357.678 107.534 360.759 109.76 364.07 111.6C366.53 112.77 371.98 113.29 372.7 114.16C373.42 115.03 371.85 116.35 369.84 115.86C369.84 115.86 369.66 117.45 368.45 117.6C367.24 117.75 365.38 117.03 363.56 116.03C360.505 114.246 357.541 112.311 354.68 110.23C353.031 108.76 351.269 107.422 349.41 106.23C347.75 105.35 347.11 104.34 347.86 103.23C348.61 102.12 350.46 102.38 350.46 102.38V102.38Z" stroke="#04007B" stroke-width="0.79" stroke-linecap="round" stroke-linejoin="round"/>
<path d="M349.68 104.14C351.114 104.639 352.438 105.41 353.58 106.41C355.37 108.01 364.18 114.99 369.84 115.86" stroke="#04007B" stroke-width="0.79" stroke-linecap="round" stroke-linejoin="round"/>
<path opacity="0.2" d="M367.48 74.77C370.77 78.27 373.12 81.42 375.97 84.16C369.31 92.28 359.62 104.92 359.2 110.23C358.54 118.35 357.98 126.23 376.46 129.67L372.6 138.11C372.6 138.11 362.42 138.43 351.47 125.99C340.52 113.55 332.7 108.09 318.05 109.56L322.23 101.29C327.745 102.561 333.175 104.174 338.49 106.12C346.43 109.29 360.4 88.43 367.48 74.77Z" fill="#000275"/>
<path d="M339.39 67.38C339.39 67.38 352.39 60.83 363.55 70.9C374.71 80.97 375.3 88.59 393.33 92.84L372.6 138.11C372.6 138.11 362.42 138.43 351.47 125.99C340.52 113.55 332.7 108.09 318.05 109.56" stroke="#04007B" stroke-width="2.56" stroke-linecap="round" stroke-linejoin="round"/>
<path d="M297.06 151.92C297.618 151.919 298.165 151.765 298.643 151.476C299.12 151.188 299.51 150.774 299.77 150.28L344.77 64.13C344.956 63.7747 345.07 63.3864 345.106 62.9871C345.141 62.5878 345.098 62.1854 344.978 61.8028C344.858 61.4202 344.665 61.065 344.407 60.7574C344.15 60.4498 343.835 60.1958 343.48 60.01C343.125 59.8242 342.736 59.7101 342.337 59.6744C341.938 59.6386 341.535 59.6819 341.153 59.8017C340.77 59.9215 340.415 60.1155 340.107 60.3725C339.8 60.6296 339.546 60.9448 339.36 61.3L294.36 147.45C294.118 147.916 294 148.436 294.017 148.961C294.035 149.486 294.187 149.997 294.459 150.446C294.731 150.895 295.114 151.267 295.572 151.525C296.029 151.783 296.545 151.919 297.07 151.92H297.06Z" fill="#BCBBB9"/>
<path d="M297.06 151.92C297.618 151.919 298.165 151.765 298.643 151.476C299.12 151.188 299.51 150.774 299.77 150.28L344.77 64.13C344.956 63.7747 345.07 63.3864 345.106 62.9871C345.141 62.5878 345.098 62.1854 344.978 61.8028C344.858 61.4202 344.665 61.065 344.407 60.7574C344.15 60.4498 343.835 60.1958 343.48 60.01C343.125 59.8242 342.736 59.7101 342.337 59.6744C341.938 59.6386 341.535 59.6819 341.153 59.8017C340.77 59.9215 340.415 60.1155 340.107 60.3725C339.8 60.6296 339.546 60.9448 339.36 61.3L294.36 147.45C294.118 147.916 294 148.436 294.017 148.961C294.035 149.486 294.187 149.997 294.459 150.446C294.731 150.895 295.114 151.267 295.572 151.525C296.029 151.783 296.545 151.919 297.07 151.92H297.06Z" stroke="#04007B" stroke-width="2.56" stroke-linecap="round" stroke-linejoin="round"/>
<path d="M234.08 65.8H234.03C232.866 65.5746 231.667 65.5933 230.511 65.855C229.354 66.1166 228.264 66.6155 227.31 67.32C220.08 72.65 203.72 87.44 209.21 109C209.21 109 210.84 89.68 235.43 72.2C236.008 71.8043 236.455 71.2462 236.715 70.5964C236.976 69.9465 237.037 69.234 236.893 68.549C236.748 67.864 236.404 67.2372 235.903 66.7479C235.403 66.2586 234.768 65.9287 234.08 65.8V65.8Z" fill="#798FCB"/>
<path d="M262.431 102.718C263.078 98.5991 260.63 94.7933 256.963 94.2178C253.297 93.6423 249.8 96.5152 249.154 100.635C248.507 104.754 250.955 108.56 254.622 109.135C258.288 109.711 261.785 106.838 262.431 102.718Z" fill="#798FCB"/>
<path d="M253.134 119.646C253.405 117.917 252.378 116.319 250.839 116.077C249.301 115.836 247.833 117.042 247.562 118.772C247.29 120.501 248.317 122.099 249.856 122.341C251.395 122.582 252.862 121.376 253.134 119.646Z" fill="#798FCB"/>
<path d="M132.37 172.45C119.85 171.08 113.89 184.27 114.66 196.62C115.43 208.97 120.43 213.99 126.78 213.76C133.13 213.53 136.56 201.13 141.48 195.62C146.4 190.11 160.85 194.48 172.12 186.62C183.39 178.76 181.72 150.74 181.72 150.74M93.35 176.4C93.35 176.4 96.18 161.5 117.35 161.5L93.35 176.4ZM118.53 151.47C118.53 151.47 89.68 132.72 89.68 120.09C89.68 103.09 115.21 121.79 115.21 121.79L118.53 151.47Z" stroke="#04007B" stroke-width="2.56" stroke-linecap="round" stroke-linejoin="round"/>
<path d="M147.7 134.28C174.502 134.28 196.23 112.552 196.23 85.75C196.23 58.9476 174.502 37.22 147.7 37.22C120.898 37.22 99.17 58.9476 99.17 85.75C99.17 112.552 120.898 134.28 147.7 134.28Z" fill="#D9F8F5"/>
<path opacity="0.5" d="M190.72 63.26C176.17 52.99 146.81 40.53 105.05 62.58C109.253 54.8499 115.477 48.4072 123.058 43.9406C130.639 39.474 139.291 37.1515 148.089 37.2214C156.887 37.2912 165.501 39.7508 173.01 44.3371C180.519 48.9234 186.641 55.4641 190.72 63.26V63.26Z" fill="white"/>
<path d="M145.27 41.59C148.279 42.8524 151.161 44.3959 153.88 46.2" stroke="#04007B" stroke-width="1.71" stroke-linecap="round" stroke-linejoin="round"/>
<path opacity="0.2" d="M111.1 117.62L162.61 104.62L188.05 112.76C183.906 118.968 178.385 124.137 171.918 127.864C165.451 131.592 158.211 133.778 150.762 134.252C143.312 134.726 135.854 133.475 128.966 130.598C122.079 127.72 115.948 123.293 111.05 117.66L111.1 117.62Z" fill="#000275"/>
<path d="M147.7 134.28C174.502 134.28 196.23 112.552 196.23 85.75C196.23 58.9476 174.502 37.22 147.7 37.22C120.898 37.22 99.17 58.9476 99.17 85.75C99.17 112.552 120.898 134.28 147.7 134.28Z" stroke="#04007B" stroke-width="2.56" stroke-linecap="round" stroke-linejoin="round"/>
<path d="M115.21 121.79C109.546 116.685 105.165 110.316 102.422 103.202C99.6788 96.0871 98.6507 88.4261 99.4211 80.84C100.192 73.2538 102.739 65.9559 106.856 59.5379C110.974 53.12 116.545 47.7626 123.12 43.9C129.584 44.021 135.976 45.2837 142 47.63C166.3 57.01 179.65 81.08 171.8 101.4C164.16 121.28 139.05 130.2 115.21 121.79V121.79Z" fill="#1A43A4"/>
<path opacity="0.2" d="M115.21 121.79C107.533 114.868 102.275 105.668 100.21 95.54C108.743 102.365 119.019 106.661 129.87 107.94C156.52 111.19 168.4 96.84 168.4 96.84V108.06C158.16 123.17 136.2 129.19 115.21 121.79V121.79Z" fill="#000275"/>
<path d="M145.43 123.47C164.65 96.74 164.43 63.71 164.43 63.71C173.43 74.8 176.67 88.82 171.81 101.4C167.49 112.66 157.56 120.4 145.43 123.47Z" fill="#B8D3E2"/>
<path d="M115.21 121.79C109.546 116.685 105.165 110.316 102.422 103.202C99.6788 96.0871 98.6507 88.4261 99.4211 80.84C100.192 73.2538 102.739 65.9559 106.856 59.5379C110.974 53.12 116.545 47.7626 123.12 43.9C129.584 44.021 135.976 45.2837 142 47.63C166.3 57.01 179.65 81.08 171.8 101.4C164.16 121.28 139.05 130.2 115.21 121.79V121.79Z" stroke="#04007B" stroke-width="2.56" stroke-linecap="round" stroke-linejoin="round"/>
<path d="M178.75 113.33C185.747 113.33 191.42 107.657 191.42 100.66C191.42 93.6625 185.747 87.99 178.75 87.99C171.753 87.99 166.08 93.6625 166.08 100.66C166.08 107.657 171.753 113.33 178.75 113.33Z" fill="#B8D3E2"/>
<path d="M178.75 113.33C185.747 113.33 191.42 107.657 191.42 100.66C191.42 93.6625 185.747 87.99 178.75 87.99C171.753 87.99 166.08 93.6625 166.08 100.66C166.08 107.657 171.753 113.33 178.75 113.33Z" stroke="#04007B" stroke-width="2.56" stroke-linecap="round" stroke-linejoin="round"/>
<path d="M183.38 114.64C190.377 114.64 196.05 108.967 196.05 101.97C196.05 94.9725 190.377 89.3 183.38 89.3C176.383 89.3 170.71 94.9725 170.71 101.97C170.71 108.967 176.383 114.64 183.38 114.64Z" fill="#D9F8F5"/>
<path d="M183.38 114.64C190.377 114.64 196.05 108.967 196.05 101.97C196.05 94.9725 190.377 89.3 183.38 89.3C176.383 89.3 170.71 94.9725 170.71 101.97C170.71 108.967 176.383 114.64 183.38 114.64Z" stroke="#04007B" stroke-width="2.56" stroke-linecap="round" stroke-linejoin="round"/>
<path opacity="0.2" d="M171.15 105.27C181.15 107.12 190.83 105.64 195.78 104.58C195.193 107.365 193.686 109.871 191.501 111.695C189.317 113.518 186.582 114.553 183.737 114.633C180.892 114.713 178.104 113.832 175.82 112.134C173.537 110.435 171.892 108.018 171.15 105.27V105.27Z" fill="#000275"/>
<path d="M141.48 195.62C141.48 195.62 132.48 177.62 116.1 184.62M164.45 63.71C164.45 63.71 164.65 96.71 145.45 123.47L164.45 63.71ZM147 148.39L144.68 167.17C144.638 167.516 144.526 167.851 144.35 168.152C144.174 168.453 143.938 168.716 143.657 168.923C143.376 169.13 143.056 169.277 142.716 169.356C142.376 169.434 142.023 169.443 141.68 169.38L119.07 165.3C118.408 165.18 117.819 164.805 117.432 164.255C117.045 163.704 116.889 163.024 117 162.36L119.68 146.43C119.781 145.808 120.108 145.246 120.6 144.853C121.091 144.459 121.711 144.262 122.34 144.3L144.59 145.52C144.941 145.538 145.285 145.628 145.6 145.785C145.914 145.941 146.194 146.161 146.42 146.43C146.646 146.7 146.814 147.013 146.914 147.35C147.014 147.687 147.043 148.041 147 148.39V148.39ZM175.33 159.35C177.55 159.35 179.73 159.27 181.84 159.1L175.33 159.35ZM146.06 156.34C146.06 156.34 148.78 156.88 152.99 157.51L146.06 156.34ZM151.11 163.55C149.03 163.05 147.38 162.55 145.36 161.95L151.11 163.55ZM180.86 168C180.86 168 176.02 167.75 169.17 166.88L180.86 168ZM99.17 135.45C101.901 133.2 104.015 130.292 105.311 126.999C106.608 123.707 107.044 120.138 106.58 116.63L99.17 135.45Z" stroke="#04007B" stroke-width="2.56" stroke-linecap="round" stroke-linejoin="round"/>
<path d="M126 49.77C124.82 49.661 123.63 49.7985 122.506 50.1738C121.382 50.5491 120.348 51.1539 119.47 51.95C112.8 57.95 97.98 74.3 105.57 95.21C105.57 95.21 105.29 75.82 128.02 56C128.555 55.5461 128.944 54.9432 129.136 54.268C129.328 53.5928 129.315 52.8757 129.098 52.2079C128.882 51.5402 128.472 50.9519 127.92 50.5178C127.368 50.0837 126.7 49.8234 126 49.77V49.77Z" fill="#798FCB"/>
<path d="M157.894 83.7169C158.131 79.5539 155.319 76.0085 151.613 75.7981C147.908 75.5877 144.712 78.792 144.476 82.955C144.24 87.118 147.052 90.6634 150.757 90.8738C154.462 91.0842 157.658 87.88 157.894 83.7169Z" fill="#798FCB"/>
<path d="M150.323 101.48C150.422 99.7321 149.242 98.2436 147.687 98.1553C146.132 98.067 144.791 99.4124 144.692 101.16C144.592 102.908 145.773 104.397 147.327 104.485C148.882 104.573 150.223 103.228 150.323 101.48Z" fill="#798FCB"/>
<path d="M170.28 165.28C170.28 165.28 167.98 155.57 154.94 152.94M177.74 123.47C194.12 136.1 181.74 150.72 181.74 150.72C181.74 150.72 164.52 176.4 155.41 175.05C143.3 173.26 156.89 147.19 161.75 141.45L177.74 123.47Z" stroke="#04007B" stroke-width="2.56" stroke-linecap="round" stroke-linejoin="round"/>
<path d="M307.6 145.47C300.02 145.57 293.3 140.67 297.78 134.32C302.26 127.97 310.39 129.06 310.39 129.06C311.527 129.435 312.522 130.151 313.24 131.11" fill="#D9F8F5"/>
<path d="M141.48 145.35L138.41 168.95M307.6 145.47C300.02 145.57 293.3 140.67 297.78 134.32C302.26 127.97 310.39 129.06 310.39 129.06C311.513 129.441 312.5 130.142 313.23 131.077C313.96 132.011 314.401 133.138 314.5 134.32L307.6 145.47ZM242.71 186.56L246.71 163.55L242.71 186.56Z" stroke="#04007B" stroke-width="2.56" stroke-linecap="round" stroke-linejoin="round"/>
<path d="M251 59.11C254.008 60.3691 256.891 61.9093 259.61 63.71" stroke="#04007B" stroke-width="1.71" stroke-linecap="round" stroke-linejoin="round"/>
<path d="M280.1 143.37L282.37 148.29C282.497 148.568 282.52 148.882 282.436 149.175C282.351 149.468 282.165 149.722 281.91 149.89L277.45 152.81C277.309 152.903 277.152 152.966 276.986 152.997C276.82 153.028 276.65 153.026 276.485 152.991C276.321 152.955 276.165 152.888 276.026 152.791C275.888 152.695 275.77 152.572 275.68 152.43L273.11 148.43M183.23 146.36C181.569 143.729 178.964 141.833 175.95 141.06L172.61 146.36C172.61 146.36 176.23 149.99 179.12 153.52L183.23 146.36Z" stroke="#04007B" stroke-width="2.56" stroke-linecap="round" stroke-linejoin="round"/>
<path d="M133.67 144.92L132.25 154.89L127.7 156.34L125.99 166.54M239.3 162.52L237.87 171.88L233.83 173.5L231.87 183.57L239.3 162.52Z" stroke="#04007B" stroke-width="1.71" stroke-linecap="round" stroke-linejoin="round"/>
<path d="M230.193 172.228C230.459 170.621 229.76 169.166 228.632 168.98C227.504 168.793 226.374 169.945 226.108 171.552C225.842 173.159 226.541 174.614 227.669 174.8C228.797 174.987 229.927 173.835 230.193 172.228Z" fill="#42E400"/>
<path d="M230.193 172.228C230.459 170.621 229.76 169.166 228.632 168.98C227.504 168.793 226.374 169.945 226.108 171.552C225.842 173.159 226.541 174.614 227.669 174.8C228.797 174.987 229.927 173.835 230.193 172.228Z" stroke="#04007B" stroke-width="1.71" stroke-linecap="round" stroke-linejoin="round"/>
<path d="M124.928 154.759C125.194 153.151 124.496 151.697 123.368 151.51C122.24 151.324 121.11 152.475 120.844 154.083C120.578 155.69 121.276 157.144 122.404 157.331C123.532 157.518 124.662 156.366 124.928 154.759Z" fill="#42E400"/>
<path d="M124.928 154.759C125.194 153.151 124.496 151.697 123.368 151.51C122.24 151.324 121.11 152.475 120.844 154.083C120.578 155.69 121.276 157.144 122.404 157.331C123.532 157.518 124.662 156.366 124.928 154.759Z" stroke="#04007B" stroke-width="1.71" stroke-linecap="round" stroke-linejoin="round"/>
<path d="M166.08 100.66L158.13 98.46M273.12 112.17L264.87 108.98L273.12 112.17ZM268.84 121.65L262.09 118.77L268.84 121.65ZM169.08 92.49L160.72 89.79L169.08 92.49Z" stroke="#04007B" stroke-width="1.71" stroke-linecap="round" stroke-linejoin="round"/>
<path opacity="0.2" d="M154.94 183.79C157.99 183.725 161.017 183.251 163.94 182.38C165.362 181.964 166.609 181.094 167.488 179.901C168.368 178.709 168.832 177.261 168.81 175.78C168.763 172.958 168.381 170.151 167.67 167.42L183.46 147.82C182.947 148.824 182.37 149.792 181.73 150.72L181.85 155.09C181.87 161.078 181.176 167.047 179.78 172.87C179.693 173.263 179.593 173.653 179.48 174.04L179.39 174.36C179.32 174.64 179.24 174.91 179.17 175.18L179.05 175.57C178.98 175.81 178.91 176.05 178.83 176.29L178.71 176.69C178.63 176.92 178.56 177.14 178.49 177.36C178.42 177.58 178.4 177.63 178.35 177.76C178.3 177.89 178.2 178.19 178.12 178.4L177.99 178.77C177.91 178.99 177.83 179.2 177.74 179.4C177.703 179.516 177.659 179.629 177.61 179.74C177.52 179.97 177.43 180.19 177.33 180.41L177.23 180.66C177.1 180.96 176.97 181.25 176.83 181.54C176.7 181.82 176.57 182.09 176.43 182.35L176.31 182.59L176.03 183.11C175.97 183.21 175.92 183.29 175.87 183.39L175.61 183.82C175.61 183.91 175.5 184 175.44 184.09L175.19 184.48L175.02 184.73C174.93 184.85 174.85 184.97 174.76 185.08L174.59 185.31L174.33 185.62C174.27 185.69 174.22 185.76 174.16 185.82L173.87 186.12L173.73 186.26C173.59 186.4 173.44 186.53 173.3 186.65C173.16 186.77 173.04 186.84 172.9 186.94C172.854 186.979 172.804 187.013 172.75 187.04C172.657 187.109 172.56 187.173 172.46 187.23C172.397 187.279 172.33 187.323 172.26 187.36L171.98 187.52C171.9 187.573 171.817 187.619 171.73 187.66L171.54 187.77L170.82 188.13L170.69 188.19L170.24 188.41L170.11 188.46C163.79 191.29 152.05 193.81 145.38 194.02C137.31 194.26 137.32 210.28 129.8 213.38C128.572 213.918 127.241 214.181 125.9 214.15C132.6 188.13 137.54 184.16 154.94 183.79V183.79Z" fill="#000275"/>
<path d="M303.57 379.69C303.57 379.69 300.87 369.81 302.82 367.99C304.77 366.17 312.33 375.39 312.33 375.39" fill="#DBF7F7"/>
<path d="M303.57 379.69C303.57 379.69 300.87 369.81 302.82 367.99C304.77 366.17 312.33 375.39 312.33 375.39" stroke="#04007B" stroke-width="2.56" stroke-linecap="round" stroke-linejoin="round"/>
</svg>
