<svg xmlns="http://www.w3.org/2000/svg" width="873" height="154" fill="none" viewBox="0 0 873 154">
    <path fill="#D9F7FE" d="M49.93 96.67c-8.84 0-15.08-6.81-15.08-23.12 0-14.32 5.05-23.11 15.08-23.11"/>
    <path fill="#000275" d="M49.93 96.67V81.26c-6-1.36-11.32-6.52-15-11-.06 1.06-.1 2.15-.1 3.27.02 16.33 6.26 23.14 15.1 23.14z" opacity=".15"/>
    <path fill="#04007B" d="M49.93 99.22c-2.526.074-5.031-.483-7.288-1.62-2.258-1.136-4.197-2.817-5.642-4.89-3.12-4.38-4.7-10.82-4.7-19.16 0-16.31 6.42-25.67 17.63-25.67.679 0 1.33.27 1.81.75s.75 1.13.75 1.81c0 .679-.27 1.33-.75 1.81s-1.131.75-1.81.75c-5.71 0-12.52 3.56-12.52 20.55 0 9.38 2.17 20.56 12.52 20.56.65.04 1.26.328 1.706.802.446.475.694 1.102.694 1.753 0 .651-.248 1.278-.694 1.753-.446.474-1.056.761-1.706.802z"/>
    <path fill="#fff" d="M173.78 70.12c0 45.5-27.88 63.68-63.31 63.68C75.04 133.8 48 115.06 48 70.12c0-39.46 27-63.68 62.45-63.68s63.33 26.42 63.33 63.68z" opacity=".5"/>
    <path fill="#16369D" d="M164.2 43.92s9.82 32.58-1.95 57l-9.95 4.6s15.35-36.21 5.51-64.07l6.39 2.47z"/>
    <path fill="#E0F7FC" d="M60.87 117l-3 3.54c-.876 1.021-1.312 2.348-1.212 3.689.099 1.342.725 2.59 1.742 3.471 14.948 12.703 33.923 19.682 53.54 19.69 19.151.077 37.697-6.705 52.28-19.12.544-.472.982-1.055 1.284-1.71.301-.654.46-1.366.466-2.086.006-.721-.142-1.435-.433-2.094-.292-.659-.72-1.249-1.257-1.73l-4-3.65" opacity=".5"/>
    <path fill="#D9F8F5" d="M160.23 117h-2.69c10.13-10.26 16.24-25.57 16.24-46.87 0-37.26-27.88-63.68-63.31-63.68C75.04 6.45 48 30.66 48 70.12c0 21.19 6 36.55 16.08 46.87h-3.21l-3 3.54c-.876 1.021-1.312 2.348-1.212 3.689.099 1.342.725 2.59 1.742 3.471 14.948 12.703 33.923 19.682 53.54 19.69 19.151.077 37.697-6.705 52.28-19.12.544-.472.982-1.055 1.284-1.71.301-.654.46-1.366.466-2.086.006-.721-.142-1.435-.433-2.094-.292-.659-.72-1.249-1.257-1.73l-4.05-3.64z"/>
    <path fill="#D9F8F5" d="M160.23 117h-2.69c10.13-10.26 16.24-25.57 16.24-46.87 0-37.26-27.88-63.68-63.31-63.68C75.04 6.45 48 30.66 48 70.12c0 21.19 6 36.55 16.08 46.87h-3.21l-3 3.54c-.876 1.021-1.312 2.348-1.212 3.689.099 1.342.725 2.59 1.742 3.471 14.948 12.703 33.923 19.682 53.54 19.69 19.151.077 37.697-6.705 52.28-19.12.544-.472.982-1.055 1.284-1.71.301-.654.46-1.366.466-2.086.006-.721-.142-1.435-.433-2.094-.292-.659-.72-1.249-1.257-1.73l-4.05-3.64z"/>
    <path fill="#000275" d="M70.92 108.71c-10.594-21.637-12.916-46.4-6.53-69.63L48 47l3 52 19.92 9.71zM152 108.71c10.594-21.637 12.916-46.4 6.53-69.63l16.37 8-2.95 52-19.95 9.63z" opacity=".15"/>
    <path fill="#fff" d="M74.47 70.61c0-35.79 22.78-58.84 53.89-62.27-2.613-.3-5.24-.454-7.87-.46-35.2 0-62.06 23.87-62.06 62.73 0 44.26 26.86 62.73 62.06 62.73 2.75 0 5.44-.12 8.09-.35-31.22-2.66-54.11-21.52-54.11-62.38z" opacity=".5"/>
    <path fill="#000275" d="M135.76 111.24s-7.08 14.44-27.66 18.14c0 0 20.85 6.55 11.15 17.68l44.95-18.8s-3.51-7.7-12.27-7c0 0-15.3 11.29-29.29 10.93 0 0 33-12.34 37.57-30.23l-24.45 9.28z" opacity=".3"/>
    <path fill="#1A43A4" d="M157.14 39.08c-14.305-7.507-30.219-11.43-46.375-11.43s-32.07 3.923-46.375 11.43c-6.386 23.23-4.064 47.993 6.53 69.63 27.337 8.48 56.751 7.354 83.36-3.19 8.317-21.212 9.323-44.592 2.86-66.44z"/>
    <path fill="#000275" d="M63 44.32s38.55-21 71-5.24-10.93 74.53-59 70.84c0 0 51 10 79.27-5.71 0 0 14.44-37.12 3.53-62.76 0 0-19.69-13.42-45.39-13.07-16.072.402-31.897 4.042-46.53 10.7L63 44.32z" opacity=".3"/>
    <path fill="#04007B" d="M111.92 149.94c-20.22-.063-39.77-7.254-55.21-20.31-1.523-1.327-2.461-3.2-2.613-5.214-.152-2.014.496-4.006 1.803-5.546l3-3.53c.217-.255.483-.466.781-.618.299-.153.625-.246.959-.273.334-.027.67.013.99.116.319.103.615.268.87.485.255.217.466.483.618.781.153.299.246.625.273.959.027.334-.013.671-.116.99-.103.319-.268.615-.485.87l-3 3.54c-.437.509-.654 1.17-.606 1.839.05.668.36 1.291.866 1.731 14.506 12.265 32.874 19.018 51.87 19.07 18.542.116 36.505-6.452 50.6-18.5.275-.23.495-.518.645-.843.151-.325.228-.679.225-1.037.006-.362-.066-.72-.211-1.051-.145-.332-.359-.628-.629-.869l-4-3.64c-.249-.225-.451-.496-.595-.799-.144-.302-.227-.63-.244-.965-.017-.335.032-.67.144-.986.112-.316.285-.606.51-.855.225-.249.496-.451.799-.595.302-.144.63-.227.965-.244.335-.017.67.032.986.144.316.112.606.285.855.51l4 3.64c.803.726 1.443 1.615 1.878 2.607.435.992.654 2.065.644 3.148-.011 1.083-.251 2.151-.704 3.135-.454.983-1.111 1.859-1.928 2.57-15.027 12.843-34.173 19.85-53.94 19.74z"/>
    <path fill="#D9F7FE" d="M171 47c10 0 15.07 8.8 15.07 23.12 0 16.31-6.24 23.11-15.07 23.11"/>
    <path fill="#000275" d="M186.07 70.16c.054-3.738-.383-7.466-1.3-11.09-2.08 5.56-6.3 13.49-13.77 14.82v19.38c8.83 0 15.07-6.8 15.07-23.11z" opacity=".15"/>
    <path fill="#04007B" d="M171 95.83c-.349.022-.699-.028-1.028-.146-.329-.119-.63-.304-.885-.543-.255-.24-.458-.529-.597-.85-.138-.32-.21-.666-.21-1.016s.072-.696.21-1.016c.139-.321.342-.61.597-.85.255-.24.556-.424.885-.542.329-.119.679-.169 1.028-.147 10.34 0 12.51-11.18 12.51-20.56 0-17-6.8-20.56-12.51-20.56-.349.022-.699-.028-1.028-.146-.329-.119-.63-.304-.885-.543-.255-.24-.458-.529-.597-.85-.138-.32-.21-.666-.21-1.016s.072-.696.21-1.016c.139-.321.342-.61.597-.85.255-.24.556-.424.885-.542.329-.119.679-.169 1.028-.147 11.2 0 17.62 9.35 17.62 25.67 0 8.33-1.58 14.78-4.69 19.15-1.446 2.073-3.385 3.755-5.642 4.893-2.257 1.138-4.761 1.697-7.288 1.627z"/>
    <path fill="#04007B" d="M110.47 136.36c-41.31 0-65-24.14-65-66.24 0-19.68 6.47-36.44 18.71-48.46 11.67-11.47 28.11-17.78 46.3-17.78 37.55 0 65.86 28.48 65.86 66.24-.01 42.1-24.01 66.24-65.87 66.24zm0-127.37c-16.84 0-32 5.79-42.72 16.31-11.24 11-17.18 26.54-17.18 44.82 0 20.6 5.76 36.35 17.12 46.82 10.17 9.36 25 14.31 42.78 14.31 22.69 0 60.75-7.94 60.75-61.13 0-17.15-6.25-32.78-17.61-44C142.44 15.08 127.11 9 110.47 9v-.01z"/>
    <path fill="#000275" d="M109.54 11.55s21.09 3.82 27.88 21.1l24.83 9.27S144.89 6.3 109.54 11.55z" opacity=".3"/>
    <path fill="#04007B" d="M51.53 49.6c-.535-.003-1.055-.174-1.488-.488-.432-.315-.756-.757-.925-1.264-.168-.507-.174-1.055-.016-1.566.159-.51.473-.959.899-1.282 17.616-12.84 38.832-19.8 60.63-19.89h.11c21.847.06 43.116 7.021 60.77 19.89.519.408.859 1.001.95 1.655.09.654-.076 1.317-.465 1.85-.388.534-.968.896-1.618 1.01-.65.115-1.319-.026-1.867-.395-16.773-12.223-36.976-18.837-57.73-18.9h-.11C89.94 30.291 69.76 36.898 53 49.1c-.424.32-.94.494-1.47.5zM107.25 116.93c-18.834-.063-37.41-4.38-54.34-12.63-.572-.318-1-.843-1.197-1.466-.198-.624-.148-1.3.137-1.889.285-.588.785-1.045 1.397-1.277.612-.232 1.29-.22 1.893.032 17.791 8.787 37.52 12.918 57.342 12.007 19.822-.911 39.088-6.835 55.998-17.217.286-.175.604-.291.936-.343.331-.052.669-.038.995.04.326.08.633.222.904.42.271.198.5.447.675.733.175.286.291.604.343.935.052.332.038.67-.041.996-.079.326-.221.633-.419.904-.198.27-.447.5-.733.675-15.109 9.222-32.018 15.101-49.59 17.24-4.746.559-9.521.84-14.3.84z"/>
    <path fill="#04007B" d="M70.92 110.84c-.4 0-.79-.111-1.13-.321-.34-.21-.613-.511-.79-.869-10.815-22.106-13.187-47.4-6.67-71.13.065-.279.185-.542.353-.773.169-.231.382-.426.628-.573.245-.147.518-.243.801-.283.284-.039.572-.02.848.054.277.074.535.204.76.38.225.177.412.397.55.648.139.25.225.527.254.811.029.285 0 .572-.084.846-6.25 22.736-3.978 46.972 6.39 68.15.123.252.195.525.212.805.016.28-.023.56-.116.825-.093.264-.238.507-.426.715-.189.208-.416.376-.67.495-.283.141-.594.217-.91.22zM154.31 106.83c-.267-.001-.532-.052-.78-.15-.26-.103-.497-.255-.697-.45-.201-.194-.361-.426-.472-.683-.11-.256-.169-.532-.173-.811-.003-.28.048-.557.152-.816 8.112-20.491 9.085-43.118 2.76-64.23-.089-.27-.122-.556-.099-.84.023-.283.103-.559.235-.81.132-.253.313-.476.532-.657.22-.181.473-.317.746-.398.272-.081.558-.108.841-.077.283.031.557.118.805.257.249.138.467.325.642.55.175.223.304.48.378.755 6.602 22.022 5.584 45.628-2.89 67-.155.4-.427.743-.78.986-.353.242-.771.373-1.2.374z"/>
    <path fill="#04007B" d="M60.9 69.75H48.04c-.43-.033-.831-.227-1.124-.543-.293-.316-.455-.731-.455-1.162 0-.43.162-.846.455-1.162.293-.316.694-.51 1.124-.543H60.9c.45 0 .883.18 1.202.498.319.319.498.751.498 1.202-.003.451-.182.883-.5 1.203-.318.32-.749.502-1.2.507zM48 78.55c-.45 0-.883-.18-1.202-.498-.319-.319-.498-.751-.498-1.202 0-.45.18-.883.498-1.202.319-.319.751-.498 1.202-.498l13.49-.28c.225-.008.449.03.66.11.21.08.401.201.563.357.163.156.292.342.38.549.09.207.136.429.137.654.008.452-.163.888-.476 1.214-.313.327-.742.515-1.194.526l-13.49.27H48zM173.74 69.74h-12.4c-.43-.033-.831-.227-1.124-.543-.293-.316-.455-.731-.455-1.162 0-.43.162-.846.455-1.162.293-.316.694-.51 1.124-.543h12.4c.235-.018.471.013.693.09.223.078.427.2.6.36.172.16.31.355.405.57.094.216.143.45.143.685 0 .236-.049.469-.143.684-.095.216-.233.41-.405.57-.173.16-.377.283-.6.36-.222.078-.458.109-.693.091zM160.93 79c-.43-.033-.831-.227-1.124-.543-.293-.316-.455-.731-.455-1.162 0-.43.162-.846.455-1.162.293-.316.694-.51 1.124-.543h12.6c.43.033.831.227 1.124.543.293.316.455.731.455 1.162 0 .431-.162.846-.455 1.162-.293.316-.694.51-1.124.543h-12.6zM119.64 19.45l-17-.23c-.451 0-.883-.179-1.202-.498-.319-.319-.498-.751-.498-1.202 0-.45.179-.883.498-1.202.319-.319.751-.498 1.202-.498l17 .22c.43.033.831.227 1.124.543.293.316.455.731.455 1.162 0 .431-.162.846-.455 1.162-.293.316-.694.51-1.124.543z"/>
    <path fill="#798FCB" d="M95.91 68.04c7.997 0 14.48-6.483 14.48-14.48 0-7.997-6.483-14.48-14.48-14.48-7.997 0-14.48 6.483-14.48 14.48 0 7.997 6.483 14.48 14.48 14.48zM78.07 80.77c2.872 0 5.2-2.328 5.2-5.2 0-2.872-2.328-5.2-5.2-5.2-2.872 0-5.2 2.328-5.2 5.2 0 2.872 2.328 5.2 5.2 5.2zM132.65 90.43c-7.74 7-17.89 8.1-24.55 7.88 4.596 3.078 10.079 4.555 15.6 4.203 5.52-.352 10.771-2.514 14.939-6.15 4.168-3.637 7.022-8.546 8.119-13.968 1.098-5.421.378-11.053-2.048-16.025-1.27 6.88-4.39 17.07-12.06 24.06z"/>
    <path fill="url(#paint0_linear)" d="M222.8 57.47c-1.83-14.67-53.1-30-114.52-34.14-61.42-4.14-109.72 4.33-107.9 19 .94 7.52 12.27 15.1 33.55 21.35.38-1 .83-2 1.29-2.9v-.13c.19-.47.38-.92.58-1.38l.06-.14c.09-.565.287-1.108.58-1.6-12.89-3.94-20.2-8-20.61-12.05-1-9.51 40.66-13.74 93-9.45 52.34 4.29 95.5 15.47 96.47 25 .4 3.91-5.22 6.72-17 8.62-.12 1.76-.17 3.52-.28 5.18 22.82-3.29 35.77-9.36 34.78-17.36z"/>
    <g opacity=".5">
        <path fill="#fff" d="M204.18 58.59c-6.06-10.91-47.34-22.76-96-27.15-48-4.34-86.18.12-89.72 10 9.82-6.54 46.3-9 90.38-5.36C156.77 40 197 49.68 204.18 58.59zM38.88 58.37c-.005-.036-.005-.073 0-.11l-1.77-.53 1.77.64zM203.76 64.51c-2.39 2.16-7.51 3.86-15.45 5.13 0 .57-.06 1.14-.09 1.7 7.96-1.66 13.31-3.97 15.54-6.83z" opacity=".5"/>
    </g>
    <path fill="#06007B" d="M188.62 68.45c.055 3.175-.122 6.35-.53 9.5-.63 3.68-2-1.51-2-1.51l2.53-7.99zM35.36 57.19c-.893 2.125-1.603 4.323-2.12 6.57-1 4.17 3.28 1.91 3.28 1.91l2.6-8.71-3.76.23z"/>
    <path fill="#22282A" d="M266.87 122c-.953 0-1.733-.303-2.34-.91-.607-.607-.91-1.387-.91-2.34v-84.5c0-.953.303-1.733.91-2.34.607-.607 1.387-.91 2.34-.91h12.22c1.3 0 2.253.347 2.86 1.04.693.693 1.127 1.213 1.3 1.56l24.05 43.94 24.05-43.94c.173-.347.563-.867 1.17-1.56.693-.693 1.69-1.04 2.99-1.04h12.09c.953 0 1.733.303 2.34.91.607.607.91 1.387.91 2.34v84.5c0 .953-.303 1.733-.91 2.34-.607.607-1.387.91-2.34.91h-13.26c-.867 0-1.603-.303-2.21-.91s-.91-1.387-.91-2.34V66.36l-16.51 30.81c-.347.78-.867 1.473-1.56 2.08-.693.607-1.647.91-2.86.91h-6.11c-1.127 0-2.037-.303-2.73-.91-.693-.607-1.257-1.3-1.69-2.08l-16.38-30.81v52.39c0 .953-.303 1.733-.91 2.34-.607.607-1.387.91-2.34.91h-13.26zm131.994 1.3c-9.967 0-17.897-2.773-23.79-8.32-5.807-5.547-8.884-13.607-9.23-24.18v-2.73-2.73c.346-6.76 1.863-12.523 4.55-17.29 2.686-4.853 6.456-8.537 11.31-11.05 4.853-2.6 10.53-3.9 17.03-3.9 7.366 0 13.476 1.517 18.33 4.55 4.853 2.947 8.493 7.02 10.92 12.22 2.513 5.113 3.77 11.007 3.77 17.68v2.99c0 .867-.304 1.647-.91 2.34-.607.607-1.387.91-2.34.91h-42.38v.91c.086 2.773.606 5.33 1.56 7.67.953 2.253 2.34 4.073 4.16 5.46 1.906 1.387 4.203 2.08 6.89 2.08 2.08 0 3.813-.303 5.2-.91 1.386-.693 2.513-1.43 3.38-2.21.953-.867 1.646-1.603 2.08-2.21.78-.953 1.386-1.517 1.82-1.69.52-.26 1.256-.39 2.21-.39h13.78c.78 0 1.43.26 1.95.78.606.52.866 1.17.78 1.95-.087 1.473-.824 3.25-2.21 5.33-1.3 1.993-3.25 3.987-5.85 5.98-2.6 1.907-5.85 3.51-9.75 4.81-3.814 1.3-8.234 1.95-13.26 1.95zm-12.74-41.47h25.35v-.39c0-3.033-.52-5.677-1.56-7.93-.954-2.34-2.384-4.16-4.29-5.46-1.907-1.3-4.204-1.95-6.89-1.95-2.687 0-4.984.65-6.89 1.95-1.82 1.3-3.25 3.12-4.29 5.46-.954 2.253-1.43 4.897-1.43 7.93v.39zM447.996 122c-.867 0-1.647-.303-2.34-.91-.607-.607-.91-1.387-.91-2.34v-61.1c0-.953.303-1.733.91-2.34.693-.607 1.473-.91 2.34-.91h12.09c.953 0 1.733.303 2.34.91.606.607.91 1.387.91 2.34v4.42c1.82-2.427 4.246-4.507 7.28-6.24 3.12-1.733 6.803-2.643 11.05-2.73 9.966-.173 16.856 3.64 20.67 11.44 1.993-3.38 4.853-6.11 8.58-8.19 3.726-2.167 7.843-3.25 12.35-3.25 4.506 0 8.58 1.04 12.22 3.12 3.64 1.993 6.543 5.113 8.71 9.36 2.166 4.16 3.25 9.533 3.25 16.12v37.05c0 .953-.347 1.733-1.04 2.34-.607.607-1.344.91-2.21.91h-12.87c-.954 0-1.734-.303-2.34-.91-.607-.607-.91-1.387-.91-2.34V82.74c0-3.553-.52-6.327-1.56-8.32-.954-1.993-2.297-3.423-4.03-4.29-1.647-.953-3.51-1.43-5.59-1.43-1.82 0-3.597.477-5.33 1.43-1.647.867-3.034 2.297-4.16 4.29-1.04 1.993-1.56 4.767-1.56 8.32v36.01c0 .953-.304 1.733-.91 2.34-.607.607-1.344.91-2.21.91h-12.87c-.954 0-1.734-.303-2.34-.91-.607-.607-.91-1.387-.91-2.34V82.74c0-3.553-.52-6.327-1.56-8.32-1.04-1.993-2.427-3.423-4.16-4.29-1.647-.953-3.467-1.43-5.46-1.43-1.82 0-3.597.477-5.33 1.43-1.647.867-3.034 2.297-4.16 4.29-1.04 1.993-1.56 4.723-1.56 8.19v36.14c0 .953-.304 1.733-.91 2.34-.607.607-1.387.91-2.34.91h-13.13zm145.233 1.3c-9.967 0-17.897-2.773-23.79-8.32-5.807-5.547-8.883-13.607-9.23-24.18v-2.73-2.73c.347-6.76 1.863-12.523 4.55-17.29 2.687-4.853 6.457-8.537 11.31-11.05 4.853-2.6 10.53-3.9 17.03-3.9 7.367 0 13.477 1.517 18.33 4.55 4.853 2.947 8.493 7.02 10.92 12.22 2.513 5.113 3.77 11.007 3.77 17.68v2.99c0 .867-.303 1.647-.91 2.34-.607.607-1.387.91-2.34.91h-42.38v.91c.087 2.773.607 5.33 1.56 7.67.953 2.253 2.34 4.073 4.16 5.46 1.907 1.387 4.203 2.08 6.89 2.08 2.08 0 3.813-.303 5.2-.91 1.387-.693 2.513-1.43 3.38-2.21.953-.867 1.647-1.603 2.08-2.21.78-.953 1.387-1.517 1.82-1.69.52-.26 1.257-.39 2.21-.39h13.78c.78 0 1.43.26 1.95.78.607.52.867 1.17.78 1.95-.087 1.473-.823 3.25-2.21 5.33-1.3 1.993-3.25 3.987-5.85 5.98-2.6 1.907-5.85 3.51-9.75 4.81-3.813 1.3-8.233 1.95-13.26 1.95zm-12.74-41.47h25.35v-.39c0-3.033-.52-5.677-1.56-7.93-.953-2.34-2.383-4.16-4.29-5.46-1.907-1.3-4.203-1.95-6.89-1.95-2.687 0-4.983.65-6.89 1.95-1.82 1.3-3.25 3.12-4.29 5.46-.953 2.253-1.43 4.897-1.43 7.93v.39zM643.791 122c-.867 0-1.604-.303-2.21-.91-.607-.607-.91-1.387-.91-2.34v-84.5c0-.953.303-1.733.91-2.34.606-.607 1.343-.91 2.21-.91h35.62c7.02 0 13.13 1.083 18.33 3.25 5.2 2.167 9.23 5.46 12.09 9.88 2.86 4.333 4.29 9.793 4.29 16.38 0 6.5-1.43 11.917-4.29 16.25-2.86 4.247-6.89 7.41-12.09 9.49s-11.31 3.12-18.33 3.12h-17.42v29.38c0 .953-.304 1.733-.91 2.34-.607.607-1.387.91-2.34.91h-14.95zm17.94-48.75h17.03c4.42 0 7.843-1.083 10.27-3.25 2.426-2.167 3.64-5.373 3.64-9.62 0-3.9-1.127-7.063-3.38-9.49-2.167-2.427-5.677-3.64-10.53-3.64h-17.03v26zm82.839 50.05c-4.593 0-8.71-.867-12.35-2.6-3.64-1.82-6.543-4.247-8.71-7.28-2.166-3.033-3.25-6.413-3.25-10.14 0-6.153 2.47-11.007 7.41-14.56 5.027-3.553 11.614-5.98 19.76-7.28l17.03-2.47v-2.34c0-3.38-.78-5.98-2.34-7.8-1.56-1.82-4.29-2.73-8.19-2.73-2.86 0-5.156.563-6.89 1.69-1.646 1.127-2.946 2.6-3.9 4.42-.693 1.127-1.733 1.69-3.12 1.69h-12.35c-.953 0-1.69-.26-2.21-.78-.52-.607-.736-1.3-.65-2.08 0-1.473.564-3.207 1.69-5.2 1.127-1.993 2.86-3.943 5.2-5.85 2.34-1.993 5.33-3.64 8.97-4.94 3.727-1.3 8.19-1.95 13.39-1.95 5.46 0 10.14.65 14.04 1.95 3.9 1.3 7.02 3.12 9.36 5.46 2.427 2.34 4.16 5.07 5.2 8.19 1.127 3.033 1.69 6.327 1.69 9.88v40.17c0 .953-.303 1.733-.91 2.34-.606.607-1.343.91-2.21.91h-12.87c-.866 0-1.603-.303-2.21-.91-.606-.607-.91-1.387-.91-2.34v-4.81c-1.126 1.647-2.643 3.207-4.55 4.68-1.906 1.387-4.203 2.513-6.89 3.38-2.6.867-5.676 1.3-9.23 1.3zm5.2-13.52c2.86 0 5.417-.607 7.67-1.82 2.254-1.213 4.03-3.077 5.33-5.59 1.3-2.513 1.95-5.677 1.95-9.49v-2.21l-12.09 1.95c-4.593.78-7.973 1.95-10.14 3.51-2.166 1.56-3.25 3.467-3.25 5.72 0 1.647.477 3.077 1.43 4.29 1.04 1.127 2.34 2.037 3.9 2.73 1.647.607 3.38.91 5.2.91zm75.41 13.52c-4.333 0-8.19-.693-11.57-2.08-3.38-1.473-6.24-3.553-8.58-6.24-2.34-2.773-4.116-6.023-5.33-9.75-1.213-3.813-1.95-8.017-2.21-12.61-.086-1.647-.13-3.12-.13-4.42 0-1.387.044-2.86.13-4.42.174-4.507.867-8.623 2.08-12.35 1.3-3.727 3.077-6.933 5.33-9.62 2.34-2.773 5.2-4.897 8.58-6.37 3.467-1.56 7.367-2.34 11.7-2.34 4.507 0 8.364.78 11.57 2.34 3.207 1.473 5.85 3.38 7.93 5.72V32.95c0-.953.304-1.733.91-2.34.607-.607 1.387-.91 2.34-.91h13.39c.954 0 1.734.303 2.34.91.607.607.91 1.387.91 2.34v85.8c0 .953-.303 1.733-.91 2.34-.606.607-1.386.91-2.34.91h-12.48c-.866 0-1.603-.303-2.21-.91-.606-.607-.91-1.387-.91-2.34v-4.42c-2.166 2.6-4.896 4.767-8.19 6.5-3.293 1.647-7.41 2.47-12.35 2.47zm5.98-15.6c3.207 0 5.764-.737 7.67-2.21 1.994-1.473 3.424-3.337 4.29-5.59.954-2.253 1.474-4.68 1.56-7.28.174-1.647.26-3.293.26-4.94 0-1.647-.086-3.25-.26-4.81-.086-2.427-.65-4.68-1.69-6.76-.953-2.167-2.383-3.943-4.29-5.33-1.906-1.387-4.42-2.08-7.54-2.08-3.293 0-5.893.737-7.8 2.21-1.906 1.387-3.293 3.25-4.16 5.59-.78 2.34-1.256 4.897-1.43 7.67-.173 2.687-.173 5.373 0 8.06.174 2.773.65 5.33 1.43 7.67.867 2.34 2.254 4.247 4.16 5.72 1.907 1.387 4.507 2.08 7.8 2.08z"/>
    <defs>
        <linearGradient id="paint0_linear" x1="3.614" x2="219.611" y1="65.16" y2="34.727" gradientUnits="userSpaceOnUse">
            <stop stop-color="#FC0"/>
            <stop offset="1" stop-color="#FE8D13"/>
        </linearGradient>
    </defs>
</svg>
